<svg width="980" height="425" viewBox="0 0 980 425" fill="none" xmlns="http://www.w3.org/2000/svg">
<g clip-path="url(#clip0_1_176)">
<path d="M883.382 175.258H308.805C306.366 175.258 304.026 176.227 302.301 177.952C300.576 179.677 299.607 182.017 299.607 184.457C299.607 186.896 300.576 189.236 302.301 190.961C304.026 192.686 306.366 193.655 308.805 193.655H325.08V413.721C325.08 416.161 326.05 418.5 327.775 420.225C329.5 421.951 331.84 422.92 334.279 422.92C336.719 422.92 339.059 421.951 340.784 420.225C342.509 418.5 343.478 416.161 343.478 413.721L343.618 193.655H804.774L847.294 413.721C847.294 416.161 848.263 418.5 849.988 420.225C851.713 421.951 854.053 422.92 856.493 422.92C858.932 422.92 861.272 421.951 862.997 420.225C864.722 418.5 865.691 416.161 865.691 413.721L868.368 193.655H883.382C885.821 193.655 888.161 192.686 889.886 190.961C891.611 189.236 892.58 186.896 892.58 184.457C892.58 182.017 891.611 179.677 889.886 177.952C888.161 176.227 885.821 175.258 883.382 175.258Z" fill="#CCCCCC"/>
<path d="M408.401 134.269V173.223H310.804C308.247 173.312 305.696 172.897 303.299 172C300.902 171.104 298.705 169.744 296.833 167.998C294.962 166.252 293.452 164.155 292.391 161.826C291.33 159.497 290.738 156.982 290.649 154.424C290.56 151.866 290.976 149.316 291.873 146.918C292.769 144.521 294.129 142.324 295.875 140.453C297.621 138.581 299.718 137.072 302.047 136.011C304.376 134.95 306.891 134.358 309.449 134.269C309.901 134.253 310.352 134.253 310.804 134.269L408.401 134.269Z" fill="#F2F2F2"/>
<path d="M410.798 172.924C410.798 173.321 410.64 173.702 410.359 173.983C410.078 174.264 409.697 174.422 409.3 174.422H309.066C303.625 174.418 298.408 172.254 294.561 168.405C290.715 164.556 288.554 159.337 288.554 153.896C288.554 148.455 290.715 143.236 294.561 139.387C298.408 135.538 303.625 133.374 309.066 133.37H409.3C409.497 133.369 409.692 133.408 409.874 133.483C410.056 133.558 410.222 133.668 410.362 133.807C410.501 133.946 410.612 134.112 410.687 134.294C410.763 134.476 410.802 134.671 410.802 134.868C410.802 135.065 410.763 135.26 410.687 135.442C410.612 135.624 410.501 135.79 410.362 135.929C410.222 136.068 410.056 136.178 409.874 136.253C409.692 136.328 409.497 136.367 409.3 136.366H309.066C304.422 136.373 299.97 138.223 296.688 141.51C293.406 144.797 291.563 149.251 291.563 153.896C291.563 158.54 293.406 162.995 296.688 166.282C299.97 169.569 304.422 171.419 309.066 171.426H409.3C409.697 171.426 410.078 171.584 410.359 171.865C410.64 172.146 410.798 172.527 410.798 172.924Z" fill="#5865F2"/>
<path d="M408.401 143.258H303.522C303.443 143.259 303.367 143.228 303.311 143.172C303.254 143.116 303.222 143.041 303.221 142.961C303.22 142.882 303.251 142.806 303.307 142.749C303.362 142.692 303.438 142.66 303.517 142.659H408.401C408.48 142.66 408.555 142.692 408.61 142.748C408.666 142.804 408.697 142.88 408.697 142.959C408.697 143.038 408.666 143.113 408.61 143.169C408.555 143.226 408.48 143.258 408.401 143.258Z" fill="#CCCCCC"/>
<path d="M408.401 150.45H303.522C303.443 150.45 303.367 150.419 303.311 150.364C303.254 150.308 303.222 150.232 303.221 150.153C303.22 150.074 303.251 149.998 303.307 149.941C303.362 149.884 303.438 149.852 303.517 149.851H408.401C408.48 149.851 408.555 149.883 408.61 149.94C408.666 149.996 408.697 150.071 408.697 150.15C408.697 150.229 408.666 150.305 408.61 150.361C408.555 150.417 408.48 150.449 408.401 150.45Z" fill="#CCCCCC"/>
<path d="M408.401 157.642H303.522C303.443 157.642 303.367 157.611 303.311 157.555C303.254 157.5 303.222 157.424 303.221 157.345C303.22 157.265 303.251 157.189 303.307 157.132C303.362 157.076 303.438 157.043 303.517 157.042H408.401C408.48 157.043 408.555 157.075 408.61 157.131C408.666 157.187 408.697 157.263 408.697 157.342C408.697 157.421 408.666 157.497 408.61 157.553C408.555 157.609 408.48 157.641 408.401 157.642Z" fill="#CCCCCC"/>
<path d="M408.401 164.833H303.522C303.443 164.834 303.367 164.803 303.311 164.747C303.254 164.691 303.222 164.616 303.221 164.536C303.22 164.457 303.251 164.381 303.307 164.324C303.362 164.267 303.438 164.235 303.517 164.234H408.401C408.48 164.235 408.555 164.267 408.61 164.323C408.666 164.379 408.697 164.455 408.697 164.534C408.697 164.612 408.666 164.688 408.61 164.744C408.555 164.8 408.48 164.832 408.401 164.833Z" fill="#CCCCCC"/>
<path d="M390.003 93.2276V132.182H292.407C287.241 132.362 282.215 130.482 278.436 126.957C274.656 123.431 272.431 118.548 272.252 113.383C272.072 108.217 273.952 103.191 277.477 99.4116C281.003 95.6318 285.886 93.4074 291.051 93.2276C291.503 93.2119 291.955 93.2119 292.407 93.2276H390.003Z" fill="#F2F2F2"/>
<path d="M392.4 131.883C392.4 132.28 392.242 132.661 391.961 132.942C391.68 133.223 391.299 133.381 390.902 133.381H290.668C285.225 133.381 280.004 131.218 276.154 127.369C272.305 123.52 270.142 118.299 270.142 112.855C270.142 107.411 272.305 102.19 276.154 98.3407C280.004 94.4913 285.225 92.3287 290.668 92.3287H390.902C391.099 92.3287 391.293 92.3675 391.475 92.4427C391.657 92.518 391.822 92.6284 391.961 92.7675C392.1 92.9066 392.211 93.0718 392.286 93.2536C392.361 93.4354 392.4 93.6302 392.4 93.827C392.4 94.0237 392.361 94.2185 392.286 94.4003C392.211 94.5821 392.1 94.7473 391.961 94.8864C391.822 95.0255 391.657 95.1359 391.475 95.2112C391.293 95.2864 391.099 95.3252 390.902 95.3252H290.668C286.019 95.3252 281.561 97.1721 278.273 100.46C274.986 103.747 273.139 108.206 273.139 112.855C273.139 117.504 274.986 121.963 278.273 125.25C281.561 128.538 286.019 130.384 290.668 130.384H390.902C391.299 130.385 391.68 130.543 391.961 130.823C392.242 131.104 392.4 131.485 392.4 131.883Z" fill="#36393F"/>
<path d="M390.003 102.217H285.125C285.045 102.218 284.969 102.187 284.913 102.131C284.856 102.075 284.824 102 284.823 101.92C284.823 101.841 284.853 101.765 284.909 101.708C284.964 101.651 285.04 101.619 285.119 101.618H390.003C390.082 101.619 390.157 101.651 390.213 101.707C390.268 101.763 390.299 101.839 390.299 101.918C390.299 101.996 390.268 102.072 390.213 102.128C390.157 102.184 390.082 102.216 390.003 102.217Z" fill="#CCCCCC"/>
<path d="M390.003 109.409H285.125C285.045 109.409 284.969 109.378 284.913 109.323C284.856 109.267 284.824 109.191 284.823 109.112C284.823 109.033 284.853 108.956 284.909 108.9C284.964 108.843 285.04 108.811 285.119 108.81H390.003C390.082 108.81 390.157 108.842 390.213 108.898C390.268 108.954 390.299 109.03 390.299 109.109C390.299 109.188 390.268 109.264 390.213 109.32C390.157 109.376 390.082 109.408 390.003 109.409Z" fill="#CCCCCC"/>
<path d="M390.003 116.6H285.125C285.045 116.601 284.969 116.57 284.913 116.514C284.856 116.459 284.824 116.383 284.823 116.304C284.823 116.224 284.853 116.148 284.909 116.091C284.964 116.035 285.04 116.002 285.119 116.001H390.003C390.082 116.002 390.157 116.034 390.213 116.09C390.268 116.146 390.299 116.222 390.299 116.301C390.299 116.38 390.268 116.456 390.213 116.512C390.157 116.568 390.082 116.6 390.003 116.6Z" fill="#CCCCCC"/>
<path d="M390.003 123.792H285.125C285.045 123.792 284.969 123.761 284.913 123.706C284.856 123.65 284.824 123.574 284.823 123.495C284.823 123.416 284.853 123.34 284.909 123.283C284.964 123.226 285.04 123.194 285.119 123.193H390.003C390.082 123.194 390.157 123.225 390.213 123.282C390.268 123.338 390.299 123.413 390.299 123.492C390.299 123.571 390.268 123.647 390.213 123.703C390.157 123.759 390.082 123.791 390.003 123.792Z" fill="#CCCCCC"/>
<path d="M503.537 313.102V279.137C503.537 277.635 502.94 276.195 501.879 275.134C500.817 274.072 499.377 273.476 497.876 273.476H369.092C367.59 273.476 366.151 274.072 365.089 275.134C364.027 276.195 363.431 277.635 363.431 279.137V313.102H503.537Z" fill="#CCCCCC"/>
<path d="M503.537 325.839H363.431V369.71H503.537V325.839Z" fill="#CCCCCC"/>
<path d="M363.431 382.447V416.412C363.431 417.914 364.027 419.353 365.089 420.415C366.151 421.477 367.59 422.073 369.092 422.073H497.876C499.377 422.073 500.817 421.477 501.879 420.415C502.94 419.353 503.537 417.914 503.537 416.412V382.447H363.431Z" fill="#CCCCCC"/>
<path d="M432.776 298.95C435.121 298.95 437.022 297.049 437.022 294.704C437.022 292.359 435.121 290.458 432.776 290.458C430.432 290.458 428.531 292.359 428.531 294.704C428.531 297.049 430.432 298.95 432.776 298.95Z" fill="white"/>
<path d="M432.776 355.558C435.121 355.558 437.022 353.657 437.022 351.312C437.022 348.968 435.121 347.067 432.776 347.067C430.432 347.067 428.531 348.968 428.531 351.312C428.531 353.657 430.432 355.558 432.776 355.558Z" fill="white"/>
<path d="M433.004 410.968C435.349 410.968 437.249 409.067 437.249 406.722C437.249 404.377 435.349 402.477 433.004 402.477C430.659 402.477 428.758 404.377 428.758 406.722C428.758 409.067 430.659 410.968 433.004 410.968Z" fill="white"/>
<path d="M487.652 234.749V273.704H390.056C384.893 273.88 379.871 271.998 376.094 268.473C372.317 264.948 370.094 260.067 369.915 254.904C369.735 249.741 371.612 244.717 375.135 240.938C378.658 237.158 383.537 234.932 388.7 234.749C389.152 234.733 389.604 234.733 390.056 234.749H487.652Z" fill="#F2F2F2"/>
<path d="M490.05 273.404C490.05 273.801 489.892 274.182 489.611 274.463C489.33 274.744 488.949 274.902 488.552 274.902H388.318C382.875 274.903 377.655 272.743 373.805 268.896C369.955 265.049 367.79 259.831 367.787 254.388C367.784 248.946 369.942 243.725 373.787 239.873C377.633 236.022 382.851 233.855 388.293 233.85H488.552C488.749 233.849 488.944 233.888 489.126 233.963C489.308 234.038 489.474 234.148 489.613 234.287C489.753 234.426 489.864 234.592 489.939 234.774C490.015 234.956 490.054 235.151 490.054 235.348C490.054 235.545 490.015 235.74 489.939 235.922C489.864 236.104 489.753 236.27 489.613 236.409C489.474 236.548 489.308 236.658 489.126 236.733C488.944 236.808 488.749 236.847 488.552 236.846H388.318C383.673 236.852 379.22 238.702 375.938 241.989C372.655 245.276 370.811 249.731 370.811 254.376C370.811 259.021 372.655 263.476 375.938 266.763C379.22 270.05 383.673 271.9 388.318 271.906H488.552C488.949 271.906 489.33 272.064 489.611 272.345C489.892 272.626 490.05 273.007 490.05 273.404Z" fill="#36393F"/>
<path d="M487.652 243.738H382.774C382.695 243.739 382.619 243.708 382.562 243.652C382.506 243.596 382.474 243.521 382.473 243.441C382.472 243.362 382.503 243.286 382.559 243.229C382.614 243.172 382.69 243.14 382.769 243.139H487.653C487.731 243.14 487.807 243.172 487.863 243.228C487.918 243.284 487.949 243.36 487.949 243.439C487.949 243.518 487.918 243.593 487.863 243.649C487.807 243.706 487.731 243.738 487.653 243.738H487.652Z" fill="#CCCCCC"/>
<path d="M487.652 250.93H382.774C382.695 250.93 382.619 250.899 382.562 250.844C382.506 250.788 382.474 250.712 382.473 250.633C382.472 250.554 382.503 250.478 382.559 250.421C382.614 250.364 382.69 250.332 382.769 250.331H487.653C487.731 250.332 487.807 250.363 487.863 250.42C487.918 250.476 487.949 250.551 487.949 250.63C487.949 250.709 487.918 250.785 487.863 250.841C487.807 250.897 487.731 250.929 487.653 250.93H487.652Z" fill="#CCCCCC"/>
<path d="M487.652 258.122H382.774C382.695 258.122 382.619 258.091 382.562 258.035C382.506 257.98 382.474 257.904 382.473 257.825C382.472 257.746 382.503 257.669 382.559 257.613C382.614 257.556 382.69 257.523 382.769 257.522H487.653C487.731 257.523 487.807 257.555 487.863 257.611C487.918 257.667 487.949 257.743 487.949 257.822C487.949 257.901 487.918 257.977 487.863 258.033C487.807 258.089 487.731 258.121 487.653 258.122H487.652Z" fill="#CCCCCC"/>
<path d="M487.652 265.313H382.774C382.695 265.314 382.619 265.283 382.562 265.227C382.506 265.171 382.474 265.096 382.473 265.016C382.472 264.937 382.503 264.861 382.559 264.804C382.614 264.747 382.69 264.715 382.769 264.714H487.653C487.731 264.715 487.807 264.747 487.863 264.803C487.918 264.859 487.949 264.935 487.949 265.014C487.949 265.093 487.918 265.168 487.863 265.224C487.807 265.281 487.731 265.312 487.653 265.313H487.652Z" fill="#CCCCCC"/>
<path d="M373.031 80.2324H328.565C328.143 80.2321 327.727 80.3289 327.348 80.5155L316.125 86.1338C315.756 86.2908 315.441 86.553 315.22 86.8877C314.998 87.2224 314.88 87.6148 314.88 88.0161C314.88 88.4174 314.998 88.8098 315.22 89.1445C315.441 89.4791 315.756 89.7413 316.125 89.8983L327.348 95.5166C327.727 95.7032 328.143 95.8001 328.565 95.7997H373.031C373.644 95.8352 374.246 95.6278 374.707 95.2225C375.168 94.8172 375.45 94.2467 375.494 93.6344V82.3977C375.45 81.7854 375.168 81.2149 374.707 80.8096C374.246 80.4044 373.644 80.197 373.031 80.2324Z" fill="#36393F"/>
<path d="M375.494 82.3978V93.6345C375.45 94.2467 375.168 94.8173 374.707 95.2226C374.246 95.6279 373.644 95.8352 373.031 95.7998H364.172V80.2324H373.031C373.644 80.197 374.246 80.4044 374.707 80.8097C375.168 81.2149 375.45 81.7855 375.494 82.3978Z" fill="#5865F2"/>
<path d="M106.444 300.412C112.17 302.424 118.317 302.928 124.294 301.876C130.271 300.823 135.876 298.248 140.57 294.4C152.522 284.368 156.27 267.84 159.319 252.536C162.325 237.448 165.332 222.359 168.338 207.27L149.456 220.272C135.877 229.622 121.992 239.271 112.59 252.814C103.188 266.357 99.0842 284.844 106.638 299.498" fill="#E6E6E6"/>
<path d="M108.058 355.216C106.147 341.295 104.182 327.196 105.523 313.126C106.713 300.63 110.525 288.425 118.287 278.418C122.406 273.117 127.419 268.574 133.1 264.995C134.581 264.06 135.944 266.408 134.469 267.339C124.64 273.551 117.038 282.724 112.758 293.535C108.031 305.558 107.272 318.663 108.087 331.435C108.579 339.158 109.623 346.831 110.675 354.494C110.758 354.841 110.707 355.206 110.531 355.516C110.355 355.826 110.068 356.057 109.728 356.163C109.381 356.257 109.011 356.21 108.698 356.032C108.386 355.855 108.156 355.562 108.058 355.216L108.058 355.216Z" fill="#F2F2F2"/>
<path d="M126.466 330.583C128.921 334.315 132.297 337.352 136.267 339.401C140.237 341.45 144.668 342.442 149.132 342.281C160.606 341.737 170.172 333.728 178.783 326.126L204.253 303.638L187.396 302.831C175.274 302.251 162.839 301.71 151.293 305.448C139.747 309.186 129.098 318.183 126.987 330.134" fill="#E6E6E6"/>
<path d="M102.657 363.218C111.856 346.942 122.525 328.853 141.59 323.071C146.891 321.469 152.449 320.895 157.966 321.38C159.704 321.53 159.27 324.21 157.535 324.061C148.288 323.293 139.059 325.735 131.402 330.974C124.033 335.99 118.296 342.963 113.44 350.357C110.466 354.887 107.801 359.608 105.137 364.323C104.285 365.83 101.796 364.743 102.657 363.218L102.657 363.218Z" fill="#F2F2F2"/>
<path d="M87.9186 380.35C88.2286 376.759 89.5179 373.321 91.6463 370.412C93.7748 367.503 96.6606 365.234 99.9895 363.852V354.442H115.772V364.148C118.937 365.598 121.661 367.862 123.666 370.708C125.671 373.554 126.885 376.881 127.185 380.35L130.896 423.488H84.2076L87.9186 380.35Z" fill="#F2F2F2"/>
<path d="M624.636 174.373L619.942 172.396L616.721 148.861H573.832L570.341 172.3L566.141 174.4C565.94 174.501 565.778 174.666 565.683 174.87C565.588 175.073 565.564 175.303 565.616 175.522C565.668 175.74 565.791 175.935 565.968 176.075C566.144 176.214 566.362 176.29 566.587 176.29H624.249C624.48 176.29 624.703 176.21 624.881 176.064C625.059 175.919 625.182 175.716 625.227 175.49C625.273 175.264 625.239 175.03 625.131 174.826C625.023 174.623 624.849 174.463 624.636 174.373Z" fill="#E6E6E6"/>
<path d="M700.853 151.992H490.17C489.065 151.99 488.006 151.549 487.225 150.766C486.444 149.984 486.006 148.924 486.006 147.818V118.109H705.018V147.818C705.018 148.924 704.579 149.984 703.799 150.766C703.018 151.549 701.959 151.99 700.853 151.992Z" fill="#CCCCCC"/>
<path d="M705.238 132.15H485.813V5.03168C485.815 3.69764 486.346 2.41868 487.289 1.47539C488.232 0.532095 489.511 0.0014927 490.845 0H700.206C701.54 0.00149268 702.819 0.532097 703.763 1.47539C704.706 2.41868 705.237 3.69763 705.238 5.03168L705.238 132.15Z" fill="#36393F"/>
<path d="M692.133 122.924H498.919C497.89 122.923 496.904 122.514 496.177 121.787C495.45 121.06 495.041 120.074 495.04 119.045V13.1054C495.041 12.0769 495.45 11.0908 496.177 10.3636C496.904 9.63632 497.89 9.22724 498.919 9.22606H692.133C693.161 9.22724 694.147 9.63633 694.874 10.3636C695.602 11.0908 696.011 12.0769 696.012 13.1054V119.045C696.011 120.074 695.602 121.06 694.874 121.787C694.147 122.514 693.161 122.923 692.133 122.924Z" fill="white"/>
<path d="M641.243 160.305C642.49 159.153 643.975 158.288 645.593 157.772C647.211 157.255 648.922 157.1 650.607 157.317C652.291 157.533 653.907 158.117 655.342 159.026C656.776 159.935 657.994 161.147 658.909 162.577L685.044 157.931L691.741 173.124L654.742 179.167C652.237 180.546 649.313 180.957 646.525 180.324C643.737 179.691 641.278 178.057 639.614 175.732C637.95 173.407 637.197 170.552 637.497 167.709C637.798 164.866 639.13 162.231 641.243 160.305Z" fill="#FFB6B6"/>
<path d="M665.44 179.704L692.685 179.365L696.134 179.318L751.567 178.62C751.567 178.62 766.62 164.259 779.727 149.473L777.89 136.185C776.098 123.144 769.629 111.198 759.686 102.57C740.913 115.114 730.026 139.944 730.026 139.944L695.656 148.165L692.218 148.987L670.862 154.09L665.44 179.704Z" fill="#5865F2"/>
<path d="M804.913 261.38H754.056C754.056 263.559 698.462 265.328 698.462 265.328C697.235 266.251 696.118 267.311 695.13 268.486C692.162 272.025 690.54 276.499 690.55 281.119V284.277C690.552 289.511 692.632 294.531 696.333 298.232C700.035 301.933 705.054 304.013 710.289 304.015H804.913C810.147 304.011 815.165 301.93 818.866 298.229C822.566 294.528 824.648 289.51 824.652 284.277V281.119C824.645 275.886 822.563 270.869 818.863 267.169C815.163 263.469 810.146 261.387 804.913 261.38Z" fill="#E4E4E4"/>
<path d="M767.93 303.231H747.402V421.721H767.93V303.231Z" fill="#E4E4E4"/>
<path d="M688.976 421C688.976 423.218 720.083 421.858 758.456 421.858C796.828 421.858 827.935 423.218 827.935 421C827.935 418.781 796.828 401.193 758.456 401.193C720.083 401.193 688.976 418.782 688.976 421Z" fill="#E4E4E4"/>
<path d="M675.186 407.461L659.908 407.46L652.64 348.531L675.188 348.532L675.186 407.461Z" fill="#FFB6B6"/>
<path d="M679.082 422.27L629.82 422.268V421.645C629.82 416.56 631.84 411.683 635.436 408.088C639.032 404.492 643.909 402.472 648.994 402.471H648.995L679.083 402.473L679.082 422.27Z" fill="#2F3136"/>
<path d="M630.031 407.461L614.753 407.46L607.485 348.531L630.033 348.532L630.031 407.461Z" fill="#FFB6B6"/>
<path d="M633.927 422.27L584.665 422.268V421.645C584.665 416.56 586.685 411.683 590.281 408.088C593.877 404.492 598.754 402.472 603.839 402.471H603.84L633.928 402.473L633.927 422.27Z" fill="#2F3136"/>
<path d="M766.887 68.2002C781.557 68.2002 793.451 56.3071 793.451 41.6362C793.451 26.9653 781.557 15.0721 766.887 15.0721C752.216 15.0721 740.323 26.9653 740.323 41.6362C740.323 56.3071 752.216 68.2002 766.887 68.2002Z" fill="#FFB6B6"/>
<path d="M809.88 223.642C809.88 223.642 818.793 270.773 784.88 276.775C750.968 282.777 702.014 286.995 702.014 286.995L680.03 389.562L650.496 386.925C650.496 386.925 654.424 263.457 664.084 253.798C673.743 244.138 734.796 215.215 734.796 215.215L809.88 223.642Z" fill="#2F3136"/>
<path d="M743.646 203.89L728.814 218.769C728.814 218.769 621.72 236.019 617.589 260.754C611.351 298.098 603.984 379.306 603.984 379.306L636.183 376.891L648.809 284.58L700.327 272.861L758.941 240.918L743.646 203.89Z" fill="#2F3136"/>
<path d="M792.449 25.7794C789.826 20.8319 786.495 10.9716 781.202 9.14288C778.263 8.16828 775.225 7.52112 772.143 7.21316L763.147 10.6732L768.043 6.86524C767.09 6.80845 766.137 6.76202 765.185 6.72596L759.115 9.0605L762.221 6.64518C756.562 6.5871 750.721 7.1755 746.336 10.6204C742.598 13.5572 738.894 24.6822 738.296 29.3979C737.655 33.9092 737.879 38.501 738.956 42.9285L740.493 44.3901C741.031 43.1572 741.435 41.8703 741.699 40.5513C742.25 38.0869 743.309 35.7643 744.807 33.7315C746.305 31.6988 748.211 30.0005 750.402 28.7449L750.485 28.6977C753.064 27.2467 756.192 27.3136 759.148 27.42L773.19 27.9253C776.568 28.0468 780.206 28.2606 782.84 30.3797C784.514 31.9429 785.83 33.8496 786.698 35.969C788.007 38.6104 790.564 48.5731 790.564 48.5731C790.564 48.5731 792.011 46.6926 792.705 48.0923C793.817 44.4403 794.493 40.6696 794.719 36.8588C794.94 33.031 794.158 29.2118 792.449 25.7794Z" fill="#2F3136"/>
<path d="M885.358 53.3018C883.663 53.4134 882.014 53.8951 880.526 54.7131C879.037 55.5312 877.747 56.6655 876.744 58.0363C875.742 59.4071 875.052 60.981 874.724 62.6471C874.396 64.3133 874.437 66.0311 874.844 67.6797L853.483 83.4369L859.893 98.7536L889.746 76.0777C892.471 75.2096 894.782 73.3725 896.242 70.9143C897.702 68.4562 898.209 65.5478 897.668 62.7404C897.127 59.933 895.575 57.4215 893.306 55.6819C891.038 53.9423 888.209 53.0955 885.358 53.3018Z" fill="#FFB6B6"/>
<path d="M881.92 85.4703L828.369 144.945C828.369 144.945 802.759 136.747 782.954 127.858L774.056 100.531C771.99 94.1909 771.108 87.5251 771.455 80.8662C798.911 73.5602 830.846 100.745 830.846 100.745L870.931 69.346L881.92 85.4703Z" fill="#5865F2"/>
<path d="M756.964 228.035C747.41 224.735 737.531 221.322 726.875 220.041L726.418 219.986L726.544 219.543C737.575 180.812 734.821 156.036 729.416 118.82C728.266 110.792 729.743 102.608 733.627 95.4892C737.51 88.3701 743.592 82.6977 750.964 79.3188L751.03 79.2892L781.464 77.3553L781.533 77.351L803.668 83.8609C806.852 84.8044 809.639 86.7657 811.601 89.4445C813.564 92.1233 814.595 95.3717 814.535 98.692C814.295 110.931 814.804 124.596 815.342 139.063C816.55 171.519 817.799 205.08 810.711 226.855L810.674 226.969L810.58 227.043C804.064 232.35 795.902 235.217 787.499 235.151C777.564 235.151 767.425 231.649 756.964 228.035Z" fill="#5865F2"/>
<path d="M977.912 424.837H1.41521C1.03988 424.837 0.679916 424.687 0.414513 424.422C0.149109 424.157 0 423.797 0 423.421C0 423.046 0.149109 422.686 0.414513 422.421C0.679916 422.155 1.03988 422.006 1.41521 422.006H977.912C978.287 422.006 978.647 422.155 978.912 422.421C979.178 422.686 979.327 423.046 979.327 423.421C979.327 423.797 979.178 424.157 978.912 424.422C978.647 424.687 978.287 424.837 977.912 424.837Z" fill="#CCCCCC"/>
<path d="M601.028 72.7063C601.59 73.8461 602.463 74.8042 603.545 75.4705C604.627 76.1367 605.876 76.4841 607.147 76.4726C609.717 76.4726 611.359 75.1876 611.359 73.4131C611.359 71.2871 609.672 70.5331 606.844 69.2951L605.293 68.6299C600.818 66.7232 597.843 64.3343 597.843 59.2847C597.843 54.632 601.389 51.0922 606.928 51.0922C608.725 50.9617 610.522 51.3641 612.092 52.249C613.662 53.134 614.937 54.4621 615.756 56.0675L610.926 59.1687C610.61 58.3732 610.059 57.6927 609.347 57.2178C608.634 56.7429 607.794 56.4959 606.938 56.5098C606.565 56.4722 606.189 56.5128 605.832 56.629C605.475 56.7452 605.147 56.9344 604.868 57.1846C604.588 57.4348 604.364 57.7404 604.21 58.082C604.055 58.4236 603.973 58.7937 603.97 59.1687C603.97 61.0301 605.122 61.7823 607.776 62.9351L609.327 63.5984C614.598 65.8586 617.572 68.1623 617.572 73.3424C617.572 78.9268 613.186 81.9862 607.294 81.9862C604.998 82.1322 602.71 81.611 600.704 80.4853C598.699 79.3597 597.062 77.6778 595.991 75.6425L601.028 72.7063ZM579.118 73.25C580.093 74.9791 580.98 76.44 583.106 76.44C585.143 76.44 586.43 75.6425 586.43 72.5431V51.4547H592.632V72.6301C592.632 79.0518 588.866 81.9754 583.37 81.9754C581.429 82.0805 579.502 81.5954 577.841 80.5841C576.181 79.5728 574.866 78.0826 574.069 76.3095L579.118 73.25Z" fill="#5865F2"/>
<path fill-rule="evenodd" clip-rule="evenodd" d="M763.93 106.456C763.682 106.707 763.058 107.373 762.542 107.937C760.103 110.603 759.303 111.438 759.187 111.438C759.044 111.438 758.426 110.923 758.237 110.647C758.054 110.38 757.73 109.98 757.267 109.452C757.164 109.334 757.007 109.12 756.92 108.978C756.833 108.835 756.663 108.62 756.543 108.498C756.423 108.377 756.238 108.171 756.13 108.04C755.823 107.667 755.301 107.91 754.92 108.603C754.803 108.816 754.62 109.104 754.513 109.243C753.841 110.117 753.709 110.309 753.556 110.632C753.402 110.958 753.249 111.174 752.594 111.999C752.481 112.141 752.31 112.413 752.215 112.603C752.119 112.793 751.957 113.045 751.854 113.164C751.751 113.283 751.597 113.518 751.511 113.688C751.426 113.857 751.292 114.048 751.215 114.113C751.138 114.178 751.001 114.378 750.911 114.557C750.821 114.737 750.673 114.953 750.583 115.038C750.419 115.193 750.009 115.863 749.591 116.659C749.467 116.897 749.281 117.208 749.178 117.35C749.075 117.492 748.923 117.795 748.839 118.022C748.755 118.25 748.596 118.545 748.485 118.678C748.374 118.811 748.247 119.084 748.203 119.284C748.159 119.484 748.024 119.792 747.904 119.968C747.784 120.143 747.611 120.506 747.52 120.774C747.429 121.041 747.293 121.356 747.217 121.473C747.142 121.59 746.982 121.988 746.863 122.357C746.745 122.725 746.597 123.109 746.536 123.209C746.474 123.31 746.339 123.722 746.234 124.125C746.13 124.529 745.966 125.034 745.87 125.248C745.773 125.461 745.623 125.985 745.536 126.411C745.449 126.838 745.301 127.347 745.207 127.544C745.113 127.741 744.943 128.467 744.829 129.159C744.715 129.85 744.566 130.642 744.498 130.917C744.006 132.904 743.821 140.086 744.208 142.193C744.307 142.735 744.425 142.845 745.889 143.761C746.117 143.904 746.584 144.211 746.928 144.443C747.272 144.676 747.687 144.929 747.852 145.004C748.016 145.08 748.284 145.245 748.448 145.37C748.611 145.496 748.868 145.624 749.018 145.657C749.168 145.689 749.429 145.827 749.598 145.963C749.768 146.1 750.086 146.279 750.305 146.363C750.525 146.446 750.838 146.602 751.002 146.71C751.166 146.817 751.472 146.966 751.682 147.041C751.892 147.116 752.291 147.292 752.569 147.433C752.846 147.574 753.126 147.689 753.19 147.689C753.254 147.689 753.564 147.819 753.879 147.979C754.194 148.138 754.662 148.318 754.92 148.379C755.178 148.44 755.608 148.6 755.876 148.736C756.592 149.1 757.162 149.087 757.383 148.703C757.607 148.313 758.229 147.407 758.561 146.987C758.713 146.794 758.838 146.568 758.838 146.486C758.838 146.403 758.99 146.105 759.175 145.825C759.42 145.455 759.519 145.209 759.537 144.927L759.562 144.538L758.923 144.215C758.572 144.037 758.073 143.812 757.816 143.715C757.558 143.617 757.234 143.455 757.094 143.352C756.955 143.251 756.618 143.057 756.345 142.923L755.849 142.68L756.063 142.314C756.373 141.785 756.508 141.717 756.921 141.879C757.109 141.953 757.569 142.121 757.944 142.252C758.318 142.383 758.76 142.571 758.924 142.669C759.089 142.768 759.49 142.911 759.815 142.987C760.141 143.064 760.6 143.217 760.836 143.329C761.072 143.44 761.706 143.614 762.244 143.716C762.783 143.818 763.473 143.976 763.777 144.068C765.715 144.649 773.17 144.667 775.132 144.094C775.375 144.024 776.09 143.859 776.723 143.728C777.355 143.598 778.026 143.411 778.213 143.314C778.401 143.217 778.837 143.074 779.183 142.996C779.529 142.918 779.937 142.776 780.09 142.681C780.243 142.585 780.688 142.394 781.079 142.256C781.47 142.118 781.943 141.948 782.13 141.878C782.551 141.719 782.709 141.793 782.943 142.257C783.158 142.685 783.14 142.714 782.465 143.024C782.164 143.163 781.918 143.312 781.918 143.357C781.918 143.402 781.678 143.528 781.386 143.637C781.093 143.746 780.638 143.945 780.375 144.079C780.111 144.213 779.858 144.322 779.813 144.322C779.377 144.322 779.365 145.206 779.793 145.752C779.931 145.928 780.084 146.223 780.133 146.407C780.182 146.591 780.326 146.867 780.454 147.021C780.666 147.277 781.264 148.169 781.609 148.746C781.812 149.084 782.405 149.079 783.086 148.734C783.357 148.597 783.79 148.437 784.047 148.377C784.305 148.318 784.726 148.163 784.984 148.034C785.242 147.904 785.606 147.75 785.793 147.69C785.98 147.631 786.345 147.476 786.602 147.347C786.86 147.217 787.269 147.044 787.511 146.963C787.753 146.882 787.997 146.761 788.051 146.694C788.106 146.628 788.362 146.493 788.619 146.395C788.877 146.297 789.212 146.122 789.363 146.005C789.514 145.889 789.798 145.736 789.995 145.665C790.191 145.595 790.476 145.444 790.628 145.329C790.779 145.214 791.076 145.037 791.286 144.937C791.497 144.836 791.79 144.666 791.937 144.56C792.084 144.453 792.314 144.297 792.448 144.213C792.734 144.035 793.441 143.559 794.149 143.069C794.798 142.619 794.824 142.531 794.955 140.304C795.107 137.714 794.851 132.219 794.527 131.117C794.436 130.808 794.283 130.001 794.187 129.324C794.079 128.562 793.933 127.902 793.805 127.592C793.691 127.317 793.539 126.752 793.467 126.336C793.395 125.92 793.244 125.379 793.13 125.133C793.016 124.887 792.842 124.384 792.743 124.013C792.643 123.643 792.508 123.254 792.442 123.15C792.377 123.046 792.243 122.684 792.145 122.346C792.047 122.008 791.896 121.639 791.81 121.526C791.723 121.413 791.585 121.107 791.502 120.846C791.42 120.585 791.255 120.224 791.136 120.045C791.017 119.866 790.868 119.519 790.806 119.274C790.743 119.029 790.601 118.729 790.491 118.607C790.38 118.485 790.225 118.216 790.146 118.009C790.067 117.801 789.911 117.51 789.799 117.361C789.687 117.213 789.515 116.916 789.417 116.703C789.22 116.271 788.98 115.902 788.521 115.322C788.101 114.792 787.677 114.195 787.403 113.75C787.278 113.546 787.122 113.321 787.057 113.25C786.895 113.073 786.48 112.503 786.209 112.085C786.086 111.895 785.88 111.623 785.751 111.481C785.622 111.338 785.463 111.121 785.399 110.998C785.249 110.712 784.843 110.131 784.516 109.735C784.375 109.565 784.183 109.301 784.09 109.149C783.345 107.938 783.306 107.899 782.858 107.899C782.502 107.899 782.416 107.933 782.268 108.136C781.923 108.61 781.436 109.225 780.791 109.999C780.429 110.434 780.046 110.896 779.94 111.026C779.527 111.53 779.13 111.458 778.593 110.783C778.337 110.461 778.008 110.079 777.862 109.933C777.518 109.591 775.071 106.757 774.692 106.263C774.487 105.995 773.929 106.138 773.629 106.536C773.175 107.137 772.794 107.62 772.553 107.899C771.973 108.571 771.634 108.993 771.442 109.28C771.255 109.561 770.99 109.897 770.455 110.531C770.335 110.674 770.16 110.897 770.067 111.028C769.786 111.421 769.155 111.376 768.863 110.941C768.744 110.763 768.43 110.385 768.167 110.1C767.903 109.815 767.629 109.492 767.557 109.381C767.486 109.271 767.133 108.841 766.773 108.425C766.414 108.01 765.985 107.501 765.821 107.294C765.389 106.748 764.62 106 764.492 106C764.431 106 764.178 106.205 763.93 106.456ZM762.29 128.786C762.758 129.283 764.23 130.776 765.186 131.721C765.623 132.152 765.996 132.608 766.094 132.827C766.283 133.251 766.294 133.226 765.628 133.931L765.212 134.372L764.814 134.299C764.567 134.253 764.368 134.157 764.288 134.044C764.218 133.945 763.932 133.643 763.652 133.375C763.372 133.106 762.931 132.654 762.672 132.37C761.936 131.563 761.276 130.948 761.145 130.946C760.862 130.941 760.25 131.447 759.077 132.653C758.389 133.361 757.684 134.056 757.509 134.197L757.192 134.455L756.801 134.237C756.586 134.117 756.375 133.958 756.332 133.884C756.288 133.81 756.124 133.628 755.965 133.48L755.677 133.211L755.956 132.792C756.327 132.236 760.308 128.224 760.797 127.914L761.18 127.672L761.552 128.035C761.757 128.235 762.089 128.573 762.29 128.786ZM778.196 127.889C778.421 128.004 779.024 128.563 780.024 129.584C782.306 131.915 782.946 132.596 783.103 132.863L783.293 133.185L782.925 133.624C782.018 134.706 781.935 134.679 779.917 132.673C777.743 130.511 778.186 130.486 775.811 132.903C774.693 134.041 774.466 134.233 774.152 134.304L773.788 134.387L773.296 133.857C772.764 133.283 772.747 133.237 772.923 132.811C773.04 132.527 777.685 127.751 777.844 127.751C777.888 127.751 778.046 127.813 778.196 127.889Z" fill="white"/>
</g>
<defs>
<clipPath id="clip0_1_176">
<rect width="979.327" height="424.837" fill="white"/>
</clipPath>
</defs>
</svg>
