<svg width="913" height="470" viewBox="0 0 913 470" fill="none" xmlns="http://www.w3.org/2000/svg">
<g clip-path="url(#clip0_1_2)">
<path d="M663.748 290.03C663.173 290.056 662.604 289.905 662.118 289.597C661.631 289.289 661.251 288.839 661.029 288.308C660.807 287.777 660.754 287.191 660.876 286.628C660.999 286.066 661.291 285.554 661.714 285.164L661.906 284.399C661.881 284.338 661.855 284.277 661.83 284.215C661.25 282.847 660.28 281.68 659.04 280.862C657.799 280.044 656.345 279.61 654.859 279.616C653.373 279.621 651.922 280.066 650.688 280.893C649.454 281.721 648.492 282.894 647.923 284.267C645.648 289.745 642.753 295.233 642.04 301.025C641.726 303.585 641.858 306.18 642.431 308.695C637.089 297.042 634.315 284.376 634.297 271.557C634.296 268.34 634.475 265.125 634.832 261.928C635.128 259.307 635.538 256.705 636.063 254.122C638.926 240.104 645.074 226.965 654.001 215.784C658.322 213.427 661.816 209.802 664.013 205.397C664.809 203.814 665.371 202.124 665.683 200.379C665.195 200.443 663.845 193.02 664.213 192.565C663.533 191.534 662.318 191.022 661.576 190.016C657.886 185.014 652.803 185.887 650.15 192.685C644.481 195.546 644.426 200.29 647.904 204.854C650.117 207.757 650.421 211.685 652.363 214.794C652.163 215.049 651.955 215.297 651.756 215.553C648.104 220.248 644.922 225.29 642.254 230.607C642.902 224.651 642.128 218.626 639.994 213.028C637.831 207.811 633.778 203.417 630.208 198.906C625.92 193.489 617.128 195.853 616.372 202.721C616.365 202.787 616.358 202.854 616.351 202.92C616.881 203.219 617.4 203.537 617.908 203.873C618.546 204.299 619.04 204.908 619.326 205.62C619.612 206.332 619.676 207.114 619.51 207.863C619.344 208.612 618.956 209.293 618.396 209.818C617.836 210.342 617.131 210.686 616.373 210.803L616.295 210.815C616.484 212.725 616.818 214.619 617.294 216.48C612.714 234.19 622.601 240.64 636.718 240.93C637.03 241.09 637.333 241.249 637.645 241.401C634.964 248.998 633.283 256.911 632.643 264.941C632.281 269.678 632.302 274.437 632.707 279.171L632.683 279.004C631.66 273.739 628.852 268.989 624.733 265.556C618.614 260.53 609.97 258.679 603.37 254.639C602.669 254.189 601.853 253.949 601.019 253.947C600.186 253.945 599.369 254.181 598.665 254.628C597.962 255.075 597.4 255.714 597.048 256.469C596.695 257.225 596.566 258.065 596.676 258.891C596.685 258.95 596.694 259.009 596.703 259.068C597.687 259.469 598.645 259.93 599.571 260.45C600.102 260.749 600.621 261.067 601.128 261.403C601.766 261.829 602.261 262.438 602.547 263.15C602.832 263.862 602.897 264.644 602.731 265.393C602.565 266.142 602.176 266.823 601.616 267.348C601.057 267.872 600.351 268.216 599.593 268.333L599.515 268.344C599.459 268.352 599.411 268.36 599.356 268.369C601.037 272.383 603.396 276.078 606.331 279.291C609.194 294.751 621.493 296.218 634.649 291.716H634.657C636.1 297.988 638.191 304.094 640.897 309.934H663.19C663.27 309.686 663.342 309.43 663.414 309.183C661.35 309.312 659.278 309.189 657.245 308.815C658.899 306.786 660.553 304.74 662.207 302.711C662.244 302.673 662.279 302.633 662.311 302.591C663.15 301.552 663.997 300.521 664.836 299.483L664.836 299.481C664.881 296.297 664.516 293.121 663.749 290.03L663.748 290.03Z" fill="#F2F2F2"/>
<path d="M730.512 347.797H556.764C544.929 347.797 533.578 352.499 525.209 360.868C516.84 369.237 512.138 380.587 512.138 392.423V466.797H526.138V425.757C526.138 413.922 530.84 402.571 539.209 394.202C547.578 385.833 558.929 381.131 570.764 381.131H716.512C728.348 381.131 739.699 385.833 748.068 394.202C756.437 402.571 761.138 413.922 761.138 425.757V466.797H775.138V392.423C775.138 380.587 770.436 369.237 762.068 360.868C753.699 352.499 742.348 347.797 730.512 347.797Z" fill="#F2F2F2"/>
<path d="M644.638 366.797C669.767 366.797 690.138 363.887 690.138 360.297C690.138 356.707 669.767 353.797 644.638 353.797C619.509 353.797 599.138 356.707 599.138 360.297C599.138 363.887 619.509 366.797 644.638 366.797Z" fill="#E6E6E6"/>
<path d="M679.035 361.927H618.431C603.47 347.589 592.773 333.771 601.337 322.301C601.337 319.004 602.647 315.842 604.978 313.51C607.31 311.179 610.472 309.869 613.769 309.869H683.697C686.994 309.869 690.156 311.179 692.487 313.51C694.819 315.842 696.128 319.004 696.128 322.301C699.389 335.37 693.564 348.581 679.035 361.927Z" fill="#F2F2F2"/>
<path d="M478.095 147.731C405.788 106.71 433.454 1.08098 354.024 34.7306C250.882 10.1682 309.509 112.764 217.953 147.731C213.76 147.731 209.608 148.556 205.734 150.161C201.86 151.766 198.341 154.117 195.376 157.082C192.411 160.047 190.059 163.567 188.454 167.441C186.85 171.314 186.024 175.466 186.024 179.659V179.659C186.024 183.947 186.887 188.19 188.563 192.137C190.238 196.083 192.692 199.652 195.776 202.63C198.86 205.607 202.513 207.934 206.516 209.469C210.519 211.005 214.79 211.719 219.075 211.568L231.024 211.148V311.731H465.024V211.148L476.973 211.568C481.258 211.719 485.529 211.005 489.532 209.469C493.535 207.934 497.188 205.608 500.272 202.63C503.356 199.652 505.81 196.083 507.485 192.137C509.161 188.19 510.024 183.947 510.024 179.659V179.659C510.024 175.466 509.198 171.314 507.594 167.441C505.989 163.567 503.637 160.047 500.672 157.082C497.707 154.117 494.188 151.766 490.314 150.161C486.44 148.556 482.288 147.731 478.095 147.731Z" fill="#E6E6E6"/>
<path d="M455.772 358.731H237.276C234.822 358.731 232.469 359.705 230.734 361.44C228.999 363.176 228.024 365.529 228.024 367.983V381.479C228.024 383.932 228.999 386.286 230.734 388.021C232.469 389.756 234.822 390.731 237.276 390.731H254.024V468.731H266.024V390.731H422.024V468.731H434.024V390.731H455.772C458.226 390.731 460.579 389.756 462.314 388.021C464.049 386.286 465.024 383.932 465.024 381.479V367.983C465.024 365.529 464.049 363.176 462.314 361.44C460.579 359.705 458.226 358.731 455.772 358.731Z" fill="#E6E6E6"/>
<path d="M500.772 336.731H494.073C496.01 333.388 497.028 329.593 497.024 325.731V197.731C497.024 191.896 494.706 186.3 490.58 182.174C486.454 178.048 480.859 175.731 475.024 175.731C469.189 175.731 463.593 178.048 459.468 182.174C455.342 186.3 453.024 191.896 453.024 197.731V303.525C288.33 280.393 395.659 280.626 247.024 304.261V197.731C247.024 191.896 244.706 186.3 240.58 182.174C236.455 178.048 230.859 175.731 225.024 175.731C219.189 175.731 213.593 178.048 209.468 182.174C205.342 186.3 203.024 191.896 203.024 197.731V325.731C203.02 329.593 204.038 333.388 205.974 336.731H192.276C189.822 336.731 187.469 337.705 185.734 339.44C183.999 341.176 183.024 343.529 183.024 345.983V359.479C183.024 361.932 183.999 364.286 185.734 366.021C187.469 367.756 189.822 368.731 192.276 368.731H500.772C503.226 368.731 505.579 367.756 507.314 366.021C509.049 364.286 510.024 361.932 510.024 359.479V345.983C510.024 343.529 509.049 341.176 507.314 339.44C505.579 337.705 503.226 336.731 500.772 336.731Z" fill="#F2F2F2"/>
<path d="M190.072 206.006C193.959 206.36 197.83 205.184 200.862 202.728C203.895 200.272 205.849 196.729 206.31 192.854C206.391 192.065 206.406 191.27 206.357 190.479L297.967 145.154L275.712 118.56L189.754 177.173C186.487 177.635 183.464 179.164 181.158 181.524C178.852 183.883 177.392 186.94 177.005 190.217C176.597 193.987 177.704 197.764 180.081 200.718C182.458 203.672 185.912 205.561 189.681 205.969C189.812 205.983 189.942 205.995 190.072 206.006Z" fill="#FFB6B6"/>
<path d="M391.378 123.752C391.378 123.752 400.275 106.099 372.496 99.6941C344.717 93.2887 293.431 114.858 290.822 117.321C288.212 119.785 291.602 116.439 283.349 115.156C279.386 114.539 271.476 107.835 269.851 113.477C268.227 119.118 268.676 125.894 263.923 120.409C259.17 114.925 277.9 167.302 277.9 167.302C277.9 167.302 280.317 166.914 288.885 162.371C293.698 159.82 293.748 149.226 296.968 152.19C300.188 155.153 328.813 154.65 330.422 154.259C332.031 153.869 339.244 140.588 339.244 140.588L391.378 123.752Z" fill="#2F3136"/>
<path d="M242.511 452.241L227.26 449.061L232.263 388.722L254.773 393.414L242.511 452.241Z" fill="#FFB6B6"/>
<path d="M239.732 468.263L192.832 458.488L192.956 457.895C193.965 453.054 196.856 448.812 200.993 446.102C205.129 443.392 210.173 442.436 215.015 443.444L215.016 443.445L224.937 438.731L239.567 448.562L243.661 449.415L239.732 468.263Z" fill="#2F3136"/>
<path d="M505.105 382.304L520.285 378.798L513.985 318.58L491.582 323.754L505.105 382.304Z" fill="#FFB6B6"/>
<path d="M508.228 398.263L554.907 387.482L554.771 386.892C553.658 382.074 550.676 377.895 546.482 375.274C542.288 372.654 537.225 371.807 532.406 372.919L532.405 372.919L522.385 368.419L507.97 378.563L503.895 379.504L508.228 398.263Z" fill="#2F3136"/>
<path d="M326.024 243.731L323.406 273.347C323.406 273.347 238.388 246.043 237.354 310.269C237.024 330.731 228.024 409.731 228.024 409.731L254.024 413.731C254.024 413.731 268.024 392.731 268.024 385.731C268.024 378.731 282.024 327.731 282.024 327.731L354.991 320.554C432.024 315.731 456.024 313.731 473.024 258.731C473.024 258.731 483.388 332.317 489.206 338.024C495.024 343.731 499.331 338.057 492.177 345.394C485.024 352.731 480.024 349.731 485.024 352.731C490.024 355.731 520.024 350.731 520.024 350.731C526.724 351.482 518.132 244.257 495.679 212.612C475.643 184.375 406.514 273.109 406.514 273.109L326.024 243.731Z" fill="#2F3136"/>
<path d="M416.108 117.749C416.108 117.749 442.095 114.799 447.631 127.253C453.166 139.707 467.115 165.64 467.115 165.64C467.115 165.64 459.962 168.687 467.267 160.77C470.541 157.222 464.5 159.386 468.651 158.003C472.802 156.619 474.186 158.003 474.186 158.003L488.024 181.527C488.024 181.527 486.911 186.888 479.721 187.062C472.532 187.237 483.873 180.143 474.186 189.83C469.184 194.831 451.024 201.731 451.024 201.731L404.602 159.069L416.108 117.749Z" fill="#2F3136"/>
<path d="M334.16 105.112L360.425 98.3063L372.685 81.3964L401.802 84.9758L408 108.041L428.729 120.073C428.729 120.073 417.272 241.254 419.997 247.908C422.722 254.562 416.109 260.129 407.764 268.706C399.419 277.283 414.698 267.713 416.634 277.051C418.571 286.389 432.687 296.272 416.634 296.174C400.582 296.076 312.282 300.533 315.05 289.463C317.817 278.393 309.208 275.363 313.381 268.422C317.554 261.481 320.363 265.36 318.958 255.118C317.554 244.876 318.938 237.957 318.938 232.421C318.938 226.886 323.574 176.587 323.574 176.587L334.16 105.112Z" fill="#5865F2"/>
<path d="M428.521 296.382C433.53 305.321 405.315 307.95 374.747 306.747C374.156 304.483 373.177 302.339 371.855 300.409C368.478 295.51 372.56 262.368 367.634 259.02C369.862 264.416 360.853 300.284 358.971 305.806C331.323 303.592 306.124 298.568 306.429 292.59C306.512 290.847 312.282 257.636 315.077 255.117C317.859 252.599 315.05 205.052 315.077 194.853C315.091 184.641 330.271 109.57 330.271 106.802C330.271 104.035 366.25 90.1967 366.25 90.1967L381.472 177.376L404.609 95.3997C406.871 98.4756 409.486 101.276 412.4 103.744C417.035 107.605 435.44 123.408 435.44 123.408L419.678 240.034C419.678 240.034 427.137 257.636 426.75 264.624C426.6 270.169 425.509 275.648 423.525 280.828C421.284 287.401 421.519 283.872 428.521 296.382Z" fill="#2F3136"/>
<path d="M453.278 55.3986C456.162 58.0281 457.905 61.6791 458.138 65.5746C458.371 69.4701 457.074 73.3026 454.524 76.2567C453.997 76.8491 453.421 77.3967 452.803 77.8939L481.149 176.095L446.504 177.608L431.781 74.6146C429.917 71.8919 429.007 68.6288 429.193 65.3346C429.379 62.0404 430.65 58.9004 432.808 56.4046C434.05 54.9963 435.557 53.8462 437.243 53.0202C438.929 52.1942 440.761 51.7084 442.635 51.5905C444.509 51.4726 446.387 51.7249 448.163 52.3331C449.94 52.9412 451.579 53.8933 452.987 55.1349C453.085 55.2215 453.182 55.3093 453.278 55.3986Z" fill="#FFB6B6"/>
<path d="M441.048 169.229C442.154 168.348 476.632 157.154 476.632 157.154C476.632 157.154 491.275 178.939 482.426 185.989C473.577 193.038 454.247 194.876 454.247 194.876C454.247 194.876 446.126 190.306 446.317 184.921C446.508 179.536 441.048 169.229 441.048 169.229Z" fill="#2F3136"/>
<path d="M419.714 68.2889L423.462 40.6886C423.982 36.8614 426.597 34.3484 429.291 35.0867L435.99 36.923C438.684 37.6613 440.453 41.3758 439.933 45.203L436.185 72.8032C435.666 76.6304 433.051 79.1435 430.357 78.4051L423.657 76.5689C420.964 75.8306 419.195 72.116 419.714 68.2889Z" fill="#36393F"/>
<path d="M421.572 66.6859L425.391 41.4385C425.921 37.9376 427.827 35.7156 429.64 36.4854L434.149 38.3998C435.962 39.1696 437.006 42.6443 436.476 46.1452L432.657 71.3926C432.127 74.8934 430.221 77.1155 428.408 76.3457L423.899 74.4312C422.086 73.6614 421.042 70.1867 421.572 66.6859Z" fill="#5865F2"/>
<path d="M350.309 40.4618C352.914 61.4788 367.477 78.8076 388.655 78.8076C393.69 78.8076 398.677 77.8157 403.329 75.8886C407.981 73.9616 412.209 71.1371 415.769 67.5764C419.33 64.0156 422.155 59.7884 424.082 55.1361C426.009 50.4838 427.001 45.4975 427.001 40.4618C427.001 19.2841 409.742 4.07414 388.655 2.11616C366.28 0.0386175 346.965 13.4787 350.309 40.4618Z" fill="#2F3136"/>
<path d="M392.893 81.0845C411.673 81.0845 426.897 65.8607 426.897 47.0812C426.897 28.3016 411.673 13.0778 392.893 13.0778C374.114 13.0778 358.89 28.3016 358.89 47.0812C358.89 65.8607 374.114 81.0845 392.893 81.0845Z" fill="#FFB6B6"/>
<path d="M357.683 50.7857C358.76 58.1746 365.057 68.4837 363.583 68.4837C362.108 68.4837 351.622 38.0234 362.108 36.0373C369.714 34.5967 371.414 35.8603 378.523 32.7779L377.52 33.7218C382.225 37.1434 388.773 35.0344 394.141 32.8074C399.524 30.5952 406.058 28.4862 410.777 31.893C413.742 34.0316 414.995 37.7481 416.839 40.9042C418.682 44.0752 422.089 47.069 425.599 46.0957C428.416 45.314 430.039 42.1578 430.024 39.2377C430.009 36.3176 426.207 33.5396 427.487 30.9196C431.282 23.1554 427.869 17.8633 419.597 14.2098C416.588 13.7526 413.579 13.2856 410.571 12.8087C412.147 10.625 414.059 8.70373 416.234 7.11584C415.113 4.82978 413.83 2.52903 411.662 1.26069C409.258 -0.169846 406.279 -0.0666759 403.492 0.0808541C397.268 0.405274 391.049 0.729717 384.835 1.0542C380.233 1.2902 375.47 1.57044 371.355 3.67944C366.223 6.31936 362.86 11.4665 360.412 16.7023C354.925 28.4714 355.795 37.9399 357.683 50.7857Z" fill="#2F3136"/>
<path d="M5.26726e-06 467.98C-0.000460809 468.137 0.0300083 468.292 0.0896507 468.436C0.149293 468.581 0.236937 468.712 0.347539 468.823C0.458142 468.933 0.58951 469.021 0.734106 469.081C0.878702 469.14 1.03367 469.171 1.19008 469.17H911.48C911.796 469.17 912.098 469.045 912.321 468.822C912.545 468.599 912.67 468.296 912.67 467.98C912.67 467.665 912.545 467.362 912.321 467.139C912.098 466.916 911.796 466.79 911.48 466.79H1.19008C1.03368 466.79 0.878715 466.82 0.734121 466.88C0.589527 466.94 0.458141 467.027 0.347539 467.138C0.236938 467.248 0.149294 467.38 0.0896507 467.524C0.0300068 467.669 -0.000456827 467.824 5.26726e-06 467.98Z" fill="#CCCCCC"/>
<path fill-rule="evenodd" clip-rule="evenodd" d="M369.93 190.456C369.682 190.707 369.058 191.373 368.542 191.937C366.103 194.603 365.303 195.438 365.187 195.438C365.044 195.438 364.426 194.923 364.237 194.647C364.054 194.38 363.73 193.98 363.267 193.452C363.164 193.334 363.007 193.12 362.92 192.978C362.833 192.835 362.663 192.62 362.543 192.498C362.423 192.377 362.238 192.171 362.13 192.04C361.823 191.667 361.301 191.91 360.92 192.603C360.803 192.816 360.62 193.104 360.513 193.243C359.841 194.117 359.709 194.309 359.556 194.632C359.402 194.958 359.249 195.174 358.594 195.999C358.481 196.141 358.31 196.413 358.215 196.603C358.119 196.793 357.957 197.045 357.854 197.164C357.751 197.283 357.597 197.518 357.511 197.688C357.426 197.857 357.292 198.048 357.215 198.113C357.138 198.178 357.001 198.378 356.911 198.557C356.821 198.737 356.673 198.953 356.583 199.038C356.419 199.193 356.009 199.863 355.591 200.659C355.467 200.897 355.281 201.208 355.178 201.35C355.075 201.492 354.923 201.795 354.839 202.022C354.755 202.25 354.596 202.545 354.485 202.678C354.374 202.811 354.247 203.084 354.203 203.284C354.159 203.484 354.024 203.792 353.904 203.968C353.784 204.143 353.611 204.506 353.52 204.774C353.429 205.041 353.293 205.356 353.217 205.473C353.142 205.59 352.982 205.988 352.863 206.357C352.745 206.725 352.597 207.109 352.536 207.209C352.474 207.31 352.339 207.722 352.234 208.125C352.13 208.529 351.966 209.034 351.87 209.248C351.773 209.461 351.623 209.985 351.536 210.411C351.449 210.838 351.301 211.347 351.207 211.544C351.113 211.741 350.943 212.467 350.829 213.159C350.715 213.85 350.566 214.642 350.498 214.917C350.006 216.904 349.821 224.086 350.208 226.193C350.307 226.735 350.425 226.845 351.889 227.761C352.117 227.904 352.584 228.211 352.928 228.443C353.272 228.676 353.687 228.929 353.852 229.004C354.016 229.08 354.284 229.245 354.448 229.37C354.611 229.496 354.868 229.624 355.018 229.657C355.168 229.689 355.429 229.827 355.598 229.963C355.768 230.1 356.086 230.279 356.305 230.363C356.525 230.446 356.838 230.602 357.002 230.71C357.166 230.817 357.472 230.966 357.682 231.041C357.892 231.116 358.291 231.292 358.569 231.433C358.846 231.574 359.126 231.689 359.19 231.689C359.254 231.689 359.564 231.819 359.879 231.979C360.194 232.138 360.662 232.318 360.92 232.379C361.178 232.44 361.608 232.6 361.876 232.736C362.592 233.1 363.162 233.087 363.383 232.703C363.607 232.313 364.229 231.407 364.561 230.987C364.713 230.794 364.838 230.568 364.838 230.486C364.838 230.403 364.99 230.105 365.175 229.825C365.42 229.455 365.519 229.209 365.537 228.927L365.562 228.538L364.923 228.215C364.572 228.037 364.073 227.812 363.816 227.715C363.558 227.617 363.234 227.455 363.094 227.352C362.955 227.251 362.618 227.057 362.345 226.923L361.849 226.68L362.063 226.314C362.373 225.785 362.508 225.717 362.921 225.879C363.109 225.953 363.569 226.121 363.944 226.252C364.318 226.383 364.76 226.571 364.924 226.669C365.089 226.768 365.49 226.911 365.815 226.987C366.141 227.064 366.6 227.217 366.836 227.329C367.072 227.44 367.706 227.614 368.244 227.716C368.783 227.818 369.473 227.976 369.777 228.068C371.715 228.649 379.17 228.667 381.132 228.094C381.375 228.024 382.09 227.859 382.723 227.728C383.355 227.598 384.026 227.411 384.213 227.314C384.401 227.217 384.837 227.074 385.183 226.996C385.529 226.918 385.937 226.776 386.09 226.681C386.243 226.585 386.688 226.394 387.079 226.256C387.47 226.118 387.943 225.948 388.13 225.878C388.551 225.719 388.709 225.793 388.943 226.257C389.158 226.685 389.14 226.714 388.465 227.024C388.164 227.163 387.918 227.312 387.918 227.357C387.918 227.402 387.678 227.528 387.386 227.637C387.093 227.746 386.638 227.945 386.375 228.079C386.111 228.213 385.858 228.322 385.813 228.322C385.377 228.322 385.365 229.206 385.793 229.752C385.931 229.928 386.084 230.223 386.133 230.407C386.182 230.591 386.326 230.867 386.454 231.021C386.666 231.277 387.264 232.169 387.609 232.746C387.812 233.084 388.405 233.079 389.086 232.734C389.357 232.597 389.79 232.437 390.047 232.377C390.305 232.318 390.726 232.163 390.984 232.034C391.242 231.904 391.606 231.75 391.793 231.69C391.98 231.631 392.345 231.476 392.602 231.347C392.86 231.217 393.269 231.044 393.511 230.963C393.753 230.882 393.997 230.761 394.051 230.694C394.106 230.628 394.362 230.493 394.619 230.395C394.877 230.297 395.212 230.122 395.363 230.005C395.514 229.889 395.798 229.736 395.995 229.665C396.191 229.595 396.476 229.444 396.628 229.329C396.779 229.214 397.076 229.037 397.286 228.937C397.497 228.836 397.79 228.666 397.937 228.56C398.084 228.453 398.314 228.297 398.448 228.213C398.734 228.035 399.441 227.559 400.149 227.069C400.798 226.619 400.824 226.531 400.955 224.304C401.107 221.714 400.851 216.219 400.527 215.117C400.436 214.808 400.283 214.001 400.187 213.324C400.079 212.562 399.933 211.902 399.805 211.592C399.691 211.317 399.539 210.752 399.467 210.336C399.395 209.92 399.244 209.379 399.13 209.133C399.016 208.887 398.842 208.384 398.743 208.013C398.643 207.643 398.508 207.254 398.442 207.15C398.377 207.046 398.243 206.684 398.145 206.346C398.047 206.008 397.896 205.639 397.81 205.526C397.723 205.413 397.585 205.107 397.502 204.846C397.42 204.585 397.255 204.224 397.136 204.045C397.017 203.866 396.868 203.519 396.806 203.274C396.743 203.029 396.601 202.729 396.491 202.607C396.38 202.485 396.225 202.216 396.146 202.009C396.067 201.801 395.911 201.51 395.799 201.361C395.687 201.213 395.515 200.916 395.417 200.703C395.22 200.271 394.98 199.902 394.521 199.322C394.101 198.792 393.677 198.195 393.403 197.75C393.278 197.546 393.122 197.321 393.057 197.25C392.895 197.073 392.48 196.503 392.209 196.085C392.086 195.895 391.88 195.623 391.751 195.481C391.622 195.338 391.463 195.121 391.399 194.998C391.249 194.712 390.843 194.131 390.516 193.735C390.375 193.565 390.183 193.301 390.09 193.149C389.345 191.938 389.306 191.899 388.858 191.899C388.502 191.899 388.416 191.933 388.268 192.136C387.923 192.61 387.436 193.225 386.791 193.999C386.429 194.434 386.046 194.896 385.94 195.026C385.527 195.53 385.13 195.458 384.593 194.783C384.337 194.461 384.008 194.079 383.862 193.933C383.518 193.591 381.071 190.757 380.692 190.263C380.487 189.995 379.929 190.138 379.629 190.536C379.175 191.137 378.794 191.62 378.553 191.899C377.973 192.571 377.634 192.993 377.442 193.28C377.255 193.561 376.99 193.897 376.455 194.531C376.335 194.674 376.16 194.897 376.067 195.028C375.786 195.421 375.155 195.376 374.863 194.941C374.744 194.763 374.43 194.385 374.167 194.1C373.903 193.815 373.629 193.492 373.557 193.381C373.486 193.271 373.133 192.841 372.773 192.425C372.414 192.01 371.985 191.501 371.821 191.294C371.389 190.748 370.62 190 370.492 190C370.431 190 370.178 190.205 369.93 190.456ZM368.29 212.786C368.758 213.283 370.23 214.776 371.186 215.721C371.623 216.152 371.996 216.608 372.094 216.827C372.283 217.251 372.294 217.226 371.628 217.931L371.212 218.372L370.814 218.299C370.567 218.253 370.368 218.157 370.288 218.044C370.218 217.945 369.932 217.643 369.652 217.375C369.372 217.106 368.931 216.654 368.672 216.37C367.936 215.563 367.276 214.948 367.145 214.946C366.862 214.941 366.25 215.447 365.077 216.653C364.389 217.361 363.684 218.056 363.509 218.197L363.192 218.455L362.801 218.237C362.586 218.117 362.375 217.958 362.332 217.884C362.288 217.81 362.124 217.628 361.965 217.48L361.677 217.211L361.956 216.792C362.327 216.236 366.308 212.224 366.797 211.914L367.18 211.672L367.552 212.035C367.757 212.235 368.089 212.573 368.29 212.786ZM384.196 211.889C384.421 212.004 385.024 212.563 386.024 213.584C388.306 215.915 388.946 216.596 389.103 216.863L389.293 217.185L388.925 217.624C388.018 218.706 387.935 218.679 385.917 216.673C383.743 214.511 384.186 214.486 381.811 216.903C380.693 218.041 380.466 218.233 380.152 218.304L379.788 218.387L379.296 217.857C378.764 217.283 378.747 217.237 378.923 216.811C379.04 216.527 383.685 211.751 383.844 211.751C383.888 211.751 384.046 211.813 384.196 211.889Z" fill="white"/>
</g>
<defs>
<clipPath id="clip0_1_2">
<rect width="912.67" height="469.17" fill="white"/>
</clipPath>
</defs>
</svg>
