<svg width="655" height="414" viewBox="0 0 655 414" fill="none" xmlns="http://www.w3.org/2000/svg">
<g clip-path="url(#clip0_1_91)">
<path d="M416.563 129.423C417.798 116.117 421.211 103.105 426.663 90.9055C428.183 87.5105 429.856 84.1903 431.682 80.9448C431.773 80.775 431.795 80.5764 431.743 80.3907C431.691 80.205 431.569 80.0468 431.402 79.9495C431.236 79.8521 431.038 79.8233 430.851 79.869C430.663 79.9147 430.501 80.0314 430.398 80.1945C423.759 92.0155 419.108 104.847 416.63 118.177C415.941 121.899 415.423 125.648 415.077 129.423C414.988 130.375 416.475 130.369 416.563 129.423Z" fill="#E6E6E6"/>
<path d="M435.282 83.3288C440.481 83.3288 444.696 79.1138 444.696 73.9144C444.696 68.715 440.481 64.5 435.282 64.5C430.082 64.5 425.867 68.715 425.867 73.9144C425.867 79.1138 430.082 83.3288 435.282 83.3288Z" fill="#E6E6E6"/>
<path d="M417.526 129.673C418.327 121.041 420.541 112.599 424.079 104.685C425.065 102.482 426.15 100.328 427.334 98.2229C427.394 98.1128 427.408 97.9839 427.374 97.8635C427.34 97.743 427.261 97.6404 427.153 97.5773C427.045 97.5141 426.917 97.4954 426.795 97.5251C426.674 97.5547 426.568 97.6304 426.501 97.7362C422.194 105.405 419.177 113.73 417.57 122.377C417.123 124.792 416.787 127.224 416.562 129.673C416.504 130.291 417.469 130.287 417.526 129.673Z" fill="#E6E6E6"/>
<path d="M429.67 99.7695C433.043 99.7695 435.777 97.0351 435.777 93.6619C435.777 90.2888 433.043 87.5544 429.67 87.5544C426.297 87.5544 423.562 90.2888 423.562 93.6619C423.562 97.0351 426.297 99.7695 429.67 99.7695Z" fill="#E6E6E6"/>
<path d="M416.309 129.096C411.632 121.797 408.185 113.78 406.106 105.364C405.529 103.02 405.06 100.655 404.699 98.266C404.678 98.1426 404.61 98.0322 404.509 97.958C404.408 97.8838 404.283 97.8516 404.159 97.8682C404.035 97.8849 403.922 97.9491 403.844 98.0472C403.767 98.1454 403.73 98.2699 403.743 98.3944C405.063 107.09 407.804 115.51 411.856 123.317C412.989 125.496 414.22 127.62 415.548 129.689C415.883 130.212 416.642 129.615 416.309 129.096Z" fill="#E6E6E6"/>
<path d="M403.735 99.3408C407.108 99.3408 409.843 96.6063 409.843 93.2332C409.843 89.8601 407.108 87.1257 403.735 87.1257C400.362 87.1257 397.628 89.8601 397.628 93.2332C397.628 96.6063 400.362 99.3408 403.735 99.3408Z" fill="#E6E6E6"/>
<path d="M397.559 134.5V122.5C397.56 121.307 398.035 120.163 398.879 119.319C399.722 118.476 400.866 118.001 402.059 118H430.059C431.252 118.001 432.396 118.476 433.24 119.319C434.083 120.163 434.558 121.307 434.559 122.5V134.5C434.558 135.693 434.083 136.837 433.24 137.68C432.396 138.524 431.252 138.999 430.059 139H402.059C400.866 138.999 399.722 138.524 398.879 137.68C398.035 136.837 397.56 135.693 397.559 134.5Z" fill="#F2F2F2"/>
<path d="M429.059 58H417.059C415.866 57.9987 414.722 57.5241 413.879 56.6805C413.035 55.8369 412.56 54.6931 412.559 53.5V4.5C412.56 3.30694 413.035 2.16314 413.879 1.31952C414.722 0.475897 415.866 0.00134456 417.059 0H429.059C430.252 0.00134456 431.396 0.475897 432.24 1.31952C433.083 2.16314 433.558 3.30694 433.559 4.5V53.5C433.558 54.6931 433.083 55.8369 432.24 56.6805C431.396 57.5241 430.252 57.9987 429.059 58Z" fill="#F2F2F2"/>
<path d="M433.059 9.5H413.059V13.5H433.059V9.5Z" fill="#CCCCCC"/>
<path d="M433.059 40.5H413.059V44.5H433.059V40.5Z" fill="#CCCCCC"/>
<path d="M459.059 58H447.059C445.866 57.9987 444.722 57.5241 443.879 56.6805C443.035 55.8369 442.56 54.6931 442.559 53.5V4.5C442.56 3.30694 443.035 2.16314 443.879 1.31952C444.722 0.475897 445.866 0.00134456 447.059 0H459.059C460.252 0.00134456 461.396 0.475897 462.24 1.31952C463.083 2.16314 463.558 3.30694 463.559 4.5V53.5C463.558 54.6931 463.083 55.8369 462.24 56.6805C461.396 57.5241 460.252 57.9987 459.059 58Z" fill="#F2F2F2"/>
<path d="M463.059 9.5H443.059V13.5H463.059V9.5Z" fill="#CCCCCC"/>
<path d="M463.059 40.5H443.059V44.5H463.059V40.5Z" fill="#CCCCCC"/>
<path d="M489.059 58H477.059C475.866 57.9987 474.722 57.5241 473.879 56.6805C473.035 55.8369 472.56 54.6931 472.559 53.5V4.5C472.56 3.30694 473.035 2.16314 473.879 1.31952C474.722 0.475897 475.866 0.00134456 477.059 0H489.059C490.252 0.00134456 491.396 0.475897 492.24 1.31952C493.083 2.16314 493.558 3.30694 493.559 4.5V53.5C493.558 54.6931 493.083 55.8369 492.24 56.6805C491.396 57.5241 490.252 57.9987 489.059 58Z" fill="#F2F2F2"/>
<path d="M493.059 9.5H473.059V13.5H493.059V9.5Z" fill="#CCCCCC"/>
<path d="M493.059 40.5H473.059V44.5H493.059V40.5Z" fill="#CCCCCC"/>
<path d="M505.059 139H493.059C491.866 138.999 490.722 138.524 489.879 137.68C489.035 136.837 488.56 135.693 488.559 134.5V85.5C488.56 84.3069 489.035 83.1631 489.879 82.3195C490.722 81.4759 491.866 81.0013 493.059 81H505.059C506.252 81.0013 507.396 81.4759 508.24 82.3195C509.083 83.1631 509.558 84.3069 509.559 85.5V134.5C509.558 135.693 509.083 136.837 508.24 137.68C507.396 138.524 506.252 138.999 505.059 139Z" fill="#F2F2F2"/>
<path d="M509.059 90.5H489.059V94.5H509.059V90.5Z" fill="#CCCCCC"/>
<path d="M509.059 121.5H489.059V125.5H509.059V121.5Z" fill="#CCCCCC"/>
<path d="M535.059 139H523.059C521.866 138.999 520.722 138.524 519.879 137.68C519.035 136.837 518.56 135.693 518.559 134.5V85.5C518.56 84.3069 519.035 83.1631 519.879 82.3195C520.722 81.4759 521.866 81.0013 523.059 81H535.059C536.252 81.0013 537.396 81.4759 538.24 82.3195C539.083 83.1631 539.558 84.3069 539.559 85.5V134.5C539.558 135.693 539.083 136.837 538.24 137.68C537.396 138.524 536.252 138.999 535.059 139Z" fill="#F2F2F2"/>
<path d="M539.059 90.5H519.059V94.5H539.059V90.5Z" fill="#CCCCCC"/>
<path d="M539.059 121.5H519.059V125.5H539.059V121.5Z" fill="#CCCCCC"/>
<path d="M565.059 139H553.059C551.866 138.999 550.722 138.524 549.879 137.68C549.035 136.837 548.56 135.693 548.559 134.5V85.5C548.56 84.3069 549.035 83.1631 549.879 82.3195C550.722 81.4759 551.866 81.0013 553.059 81H565.059C566.252 81.0013 567.396 81.4759 568.24 82.3195C569.083 83.1631 569.558 84.3069 569.559 85.5V134.5C569.558 135.693 569.083 136.837 568.24 137.68C567.396 138.524 566.252 138.999 565.059 139Z" fill="#F2F2F2"/>
<path d="M569.059 90.5H549.059V94.5H569.059V90.5Z" fill="#CCCCCC"/>
<path d="M569.059 121.5H549.059V125.5H569.059V121.5Z" fill="#CCCCCC"/>
<path d="M426.059 220H414.059C412.866 219.999 411.722 219.524 410.879 218.68C410.035 217.837 409.56 216.693 409.559 215.5V166.5C409.56 165.307 410.035 164.163 410.879 163.319C411.722 162.476 412.866 162.001 414.059 162H426.059C427.252 162.001 428.396 162.476 429.24 163.319C430.083 164.163 430.558 165.307 430.559 166.5V215.5C430.558 216.693 430.083 217.837 429.24 218.68C428.396 219.524 427.252 219.999 426.059 220Z" fill="#F2F2F2"/>
<path d="M430.059 171.5H410.059V175.5H430.059V171.5Z" fill="#CCCCCC"/>
<path d="M430.059 202.5H410.059V206.5H430.059V202.5Z" fill="#CCCCCC"/>
<path d="M456.059 220H444.059C442.866 219.999 441.722 219.524 440.879 218.68C440.035 217.837 439.56 216.693 439.559 215.5V166.5C439.56 165.307 440.035 164.163 440.879 163.319C441.722 162.476 442.866 162.001 444.059 162H456.059C457.252 162.001 458.396 162.476 459.24 163.319C460.083 164.163 460.558 165.307 460.559 166.5V215.5C460.558 216.693 460.083 217.837 459.24 218.68C458.396 219.524 457.252 219.999 456.059 220Z" fill="#F2F2F2"/>
<path d="M460.059 171.5H440.059V175.5H460.059V171.5Z" fill="#CCCCCC"/>
<path d="M460.059 202.5H440.059V206.5H460.059V202.5Z" fill="#CCCCCC"/>
<path d="M486.059 220H474.059C472.866 219.999 471.722 219.524 470.879 218.68C470.035 217.837 469.56 216.693 469.559 215.5V166.5C469.56 165.307 470.035 164.163 470.879 163.319C471.722 162.476 472.866 162.001 474.059 162H486.059C487.252 162.001 488.396 162.476 489.24 163.319C490.083 164.163 490.558 165.307 490.559 166.5V215.5C490.558 216.693 490.083 217.837 489.24 218.68C488.396 219.524 487.252 219.999 486.059 220Z" fill="#F2F2F2"/>
<path d="M490.059 171.5H470.059V175.5H490.059V171.5Z" fill="#CCCCCC"/>
<path d="M490.059 202.5H470.059V206.5H490.059V202.5Z" fill="#CCCCCC"/>
<path d="M519.059 58H507.059C505.866 57.9987 504.722 57.5241 503.879 56.6805C503.035 55.8369 502.56 54.6931 502.559 53.5V4.5C502.56 3.30694 503.035 2.16314 503.879 1.31952C504.722 0.475897 505.866 0.00134456 507.059 0H519.059C520.252 0.00134456 521.396 0.475897 522.24 1.31952C523.083 2.16314 523.558 3.30694 523.559 4.5V53.5C523.558 54.6931 523.083 55.8369 522.24 56.6805C521.396 57.5241 520.252 57.9987 519.059 58Z" fill="#F2F2F2"/>
<path d="M523.059 9.5H503.059V13.5H523.059V9.5Z" fill="#CCCCCC"/>
<path d="M523.059 40.5H503.059V44.5H523.059V40.5Z" fill="#CCCCCC"/>
<path d="M549.059 58H537.059C535.866 57.9987 534.722 57.5241 533.879 56.6805C533.035 55.8369 532.56 54.6931 532.559 53.5V4.5C532.56 3.30694 533.035 2.16314 533.879 1.31952C534.722 0.475897 535.866 0.00134456 537.059 0H549.059C550.252 0.00134456 551.396 0.475897 552.24 1.31952C553.083 2.16314 553.558 3.30694 553.559 4.5V53.5C553.558 54.6931 553.083 55.8369 552.24 56.6805C551.396 57.5241 550.252 57.9987 549.059 58Z" fill="#F2F2F2"/>
<path d="M553.059 9.5H533.059V13.5H553.059V9.5Z" fill="#CCCCCC"/>
<path d="M553.059 40.5H533.059V44.5H553.059V40.5Z" fill="#CCCCCC"/>
<path d="M579.059 58H567.059C565.866 57.9987 564.722 57.5241 563.879 56.6805C563.035 55.8369 562.56 54.6931 562.559 53.5V4.5C562.56 3.30694 563.035 2.16314 563.879 1.31952C564.722 0.475897 565.866 0.00134456 567.059 0H579.059C580.252 0.00134456 581.396 0.475897 582.24 1.31952C583.083 2.16314 583.558 3.30694 583.559 4.5V53.5C583.558 54.6931 583.083 55.8369 582.24 56.6805C581.396 57.5241 580.252 57.9987 579.059 58Z" fill="#F2F2F2"/>
<path d="M583.059 9.5H563.059V13.5H583.059V9.5Z" fill="#CCCCCC"/>
<path d="M583.059 40.5H563.059V44.5H583.059V40.5Z" fill="#CCCCCC"/>
<path d="M609.059 58H597.059C595.866 57.9987 594.722 57.5241 593.879 56.6805C593.035 55.8369 592.56 54.6931 592.559 53.5V4.5C592.56 3.30694 593.035 2.16314 593.879 1.31952C594.722 0.475897 595.866 0.00134456 597.059 0H609.059C610.252 0.00134456 611.396 0.475897 612.24 1.31952C613.083 2.16314 613.558 3.30694 613.559 4.5V53.5C613.558 54.6931 613.083 55.8369 612.24 56.6805C611.396 57.5241 610.252 57.9987 609.059 58Z" fill="#F2F2F2"/>
<path d="M613.059 9.5H593.059V13.5H613.059V9.5Z" fill="#CCCCCC"/>
<path d="M613.059 40.5H593.059V44.5H613.059V40.5Z" fill="#CCCCCC"/>
<path d="M654 59.5H369C368.735 59.5 368.48 59.3946 368.293 59.2071C368.105 59.0196 368 58.7652 368 58.5C368 58.2348 368.105 57.9804 368.293 57.7929C368.48 57.6053 368.735 57.5 369 57.5H654C654.265 57.5 654.52 57.6053 654.707 57.7929C654.895 57.9804 655 58.2348 655 58.5C655 58.7652 654.895 59.0196 654.707 59.2071C654.52 59.3946 654.265 59.5 654 59.5Z" fill="#CCCCCC"/>
<path d="M654 140.5H369C368.735 140.5 368.48 140.395 368.293 140.207C368.105 140.02 368 139.765 368 139.5C368 139.235 368.105 138.98 368.293 138.793C368.48 138.605 368.735 138.5 369 138.5H654C654.265 138.5 654.52 138.605 654.707 138.793C654.895 138.98 655 139.235 655 139.5C655 139.765 654.895 140.02 654.707 140.207C654.52 140.395 654.265 140.5 654 140.5Z" fill="#CCCCCC"/>
<path d="M654 221.5H369C368.735 221.5 368.48 221.395 368.293 221.207C368.105 221.02 368 220.765 368 220.5C368 220.235 368.105 219.98 368.293 219.793C368.48 219.605 368.735 219.5 369 219.5H654C654.265 219.5 654.52 219.605 654.707 219.793C654.895 219.98 655 220.235 655 220.5C655 220.765 654.895 221.02 654.707 221.207C654.52 221.395 654.265 221.5 654 221.5Z" fill="#CCCCCC"/>
<path d="M581.563 210.423C582.798 197.117 586.211 184.105 591.663 171.906C593.183 168.511 594.856 165.19 596.682 161.945C596.773 161.775 596.795 161.576 596.743 161.391C596.691 161.205 596.569 161.047 596.402 160.949C596.236 160.852 596.038 160.823 595.851 160.869C595.663 160.915 595.501 161.031 595.398 161.195C588.759 173.015 584.108 185.847 581.63 199.177C580.941 202.899 580.423 206.648 580.077 210.423C579.988 211.375 581.475 211.369 581.563 210.423Z" fill="#E6E6E6"/>
<path d="M600.282 164.329C605.481 164.329 609.696 160.114 609.696 154.914C609.696 149.715 605.481 145.5 600.282 145.5C595.082 145.5 590.867 149.715 590.867 154.914C590.867 160.114 595.082 164.329 600.282 164.329Z" fill="#E6E6E6"/>
<path d="M582.526 210.673C583.327 202.041 585.541 193.599 589.079 185.685C590.065 183.482 591.15 181.328 592.334 179.223C592.394 179.113 592.408 178.984 592.374 178.863C592.34 178.743 592.261 178.64 592.153 178.577C592.045 178.514 591.917 178.495 591.795 178.525C591.674 178.555 591.568 178.63 591.501 178.736C587.194 186.405 584.177 194.73 582.57 203.377C582.123 205.792 581.787 208.224 581.562 210.673C581.504 211.291 582.469 211.287 582.526 210.673Z" fill="#E6E6E6"/>
<path d="M594.67 180.77C598.043 180.77 600.777 178.035 600.777 174.662C600.777 171.289 598.043 168.554 594.67 168.554C591.297 168.554 588.562 171.289 588.562 174.662C588.562 178.035 591.297 180.77 594.67 180.77Z" fill="#E6E6E6"/>
<path d="M581.309 210.096C576.632 202.797 573.185 194.78 571.106 186.364C570.529 184.021 570.06 181.655 569.699 179.266C569.678 179.143 569.61 179.032 569.509 178.958C569.408 178.884 569.283 178.852 569.159 178.868C569.035 178.885 568.922 178.949 568.844 179.047C568.767 179.145 568.73 179.27 568.743 179.394C570.063 188.09 572.804 196.51 576.856 204.317C577.989 206.496 579.22 208.62 580.548 210.689C580.883 211.212 581.642 210.615 581.309 210.096Z" fill="#E6E6E6"/>
<path d="M568.735 180.341C572.108 180.341 574.843 177.606 574.843 174.233C574.843 170.86 572.108 168.126 568.735 168.126C565.362 168.126 562.628 170.86 562.628 174.233C562.628 177.606 565.362 180.341 568.735 180.341Z" fill="#E6E6E6"/>
<path d="M562.559 215.5V203.5C562.56 202.307 563.035 201.163 563.879 200.32C564.722 199.476 565.866 199.001 567.059 199H595.059C596.252 199.001 597.396 199.476 598.24 200.32C599.083 201.163 599.558 202.307 599.559 203.5V215.5C599.558 216.693 599.083 217.837 598.24 218.68C597.396 219.524 596.252 219.999 595.059 220H567.059C565.866 219.999 564.722 219.524 563.879 218.68C563.035 217.837 562.56 216.693 562.559 215.5Z" fill="#F2F2F2"/>
<path d="M382 363.5H1C0.734784 363.5 0.480444 363.395 0.292908 363.207C0.105371 363.02 0 362.765 0 362.5C0 362.235 0.105371 361.98 0.292908 361.793C0.480444 361.605 0.734784 361.5 1 361.5H382C382.265 361.5 382.52 361.605 382.707 361.793C382.895 361.98 383 362.235 383 362.5C383 362.765 382.895 363.02 382.707 363.207C382.52 363.395 382.265 363.5 382 363.5Z" fill="#36393F"/>
<path d="M199.059 232.5C213.971 232.5 226.059 220.412 226.059 205.5C226.059 190.588 213.971 178.5 199.059 178.5C184.147 178.5 172.059 190.588 172.059 205.5C172.059 220.412 184.147 232.5 199.059 232.5Z" fill="#2F3136"/>
<path d="M173.405 378.826L172.69 366.588L219.556 358.003L220.612 376.067L173.405 378.826Z" fill="#FFB8B8"/>
<path d="M175.675 357.641L177.055 381.245L162.194 382.113L159.945 343.648C161.897 343.534 163.852 343.806 165.699 344.447C167.545 345.089 169.248 346.087 170.708 347.387C172.169 348.686 173.359 350.261 174.212 352.02C175.064 353.779 175.561 355.689 175.675 357.641Z" fill="#2F3136"/>
<path d="M193.789 378.714L186.004 388.185L145.768 362.666L157.257 348.688L193.789 378.714Z" fill="#FFB8B8"/>
<path d="M177.737 392.726L192.751 374.46L204.251 383.913L179.785 413.679C178.275 412.438 177.024 410.911 176.104 409.187C175.184 407.462 174.612 405.573 174.422 403.627C174.232 401.681 174.427 399.717 174.996 397.847C175.564 395.976 176.496 394.236 177.737 392.726Z" fill="#2F3136"/>
<path d="M171.387 334.67L166.067 359.749C165.944 360.326 165.951 360.924 166.087 361.498C166.223 362.073 166.484 362.61 166.852 363.072C167.219 363.533 167.685 363.908 168.215 364.168C168.744 364.429 169.325 364.569 169.915 364.578L222.213 365.422C222.803 365.431 223.387 365.31 223.924 365.068C224.462 364.825 224.939 364.467 225.321 364.018C225.704 363.569 225.982 363.042 226.137 362.473C226.292 361.904 226.319 361.308 226.217 360.727L221.642 334.805C221.479 333.879 220.994 333.04 220.274 332.436C219.554 331.831 218.643 331.5 217.703 331.5H175.3C174.383 331.5 173.494 331.815 172.782 332.392C172.069 332.969 171.577 333.773 171.387 334.67Z" fill="#2F3136"/>
<path d="M180.059 343.5C180.059 343.5 129.059 311.5 119.059 328.5C114.059 337 116.559 345.25 120.309 351.375C123.789 356.952 128.784 361.423 134.712 364.266L176.059 384.5L191.059 368.5L181.059 359.5L180.059 343.5Z" fill="#2F3136"/>
<path d="M206.059 338.5C206.059 338.5 272.059 319.5 259.059 355.5C246.059 391.5 197.059 377.5 197.059 377.5L192.059 362.5L209.059 350.5L206.059 338.5Z" fill="#2F3136"/>
<path d="M199.398 236.226C212.962 236.226 223.959 225.23 223.959 211.665C223.959 198.101 212.962 187.104 199.398 187.104C185.833 187.104 174.837 198.101 174.837 211.665C174.837 225.23 185.833 236.226 199.398 236.226Z" fill="#FFB8B8"/>
<path d="M200.685 342.469C190.479 342.314 180.325 340.977 170.427 338.482L170.135 338.402L156.429 275.357C155.197 269.817 156.035 264.018 158.786 259.054C161.537 254.09 166.011 250.305 171.362 248.414C187.892 242.483 205.908 242.124 222.662 247.39H222.662C228.284 249.201 233.015 253.066 235.913 258.212C238.812 263.358 239.663 269.408 238.297 275.154L222.989 338.35L222.773 338.452C216.411 341.466 208.456 342.469 200.685 342.469Z" fill="#CCCCCC"/>
<path d="M182.274 347.366C182.772 345.983 183.567 344.726 184.603 343.683C185.64 342.64 186.892 341.837 188.272 341.331C189.652 340.824 191.126 340.627 192.591 340.751C194.056 340.876 195.475 341.321 196.75 342.054L223.736 318.63L226.178 337.038L200.177 356.46C198.804 358.519 196.723 360.003 194.328 360.631C191.934 361.258 189.393 360.986 187.186 359.865C184.98 358.744 183.261 356.852 182.355 354.549C181.45 352.245 181.421 349.69 182.274 347.366Z" fill="#FFB8B8"/>
<path d="M208.012 352.476C207.573 352.475 207.136 352.411 206.716 352.285C206.033 352.086 205.408 351.727 204.892 351.237C204.377 350.747 203.986 350.141 203.753 349.469L200.496 340.24C200.191 339.387 200.152 338.462 200.385 337.587C200.617 336.711 201.11 335.927 201.798 335.338L238.567 313.264L224.073 248.603L224.442 248.514C224.592 248.477 239.442 245.097 245.527 261.324C249.789 272.689 265.559 297.401 264.446 314.101C264.235 317.441 262.904 320.612 260.668 323.103C258.432 325.594 255.422 327.259 252.124 327.828L210.736 351.541C209.957 352.145 208.999 352.474 208.012 352.476Z" fill="#CCCCCC"/>
<path fill-rule="evenodd" clip-rule="evenodd" d="M192.93 269.456C192.682 269.707 192.058 270.373 191.542 270.937C189.103 273.603 188.303 274.438 188.187 274.438C188.044 274.438 187.426 273.923 187.237 273.647C187.054 273.38 186.73 272.98 186.267 272.452C186.164 272.334 186.007 272.12 185.92 271.978C185.833 271.835 185.663 271.62 185.543 271.498C185.423 271.377 185.238 271.171 185.13 271.04C184.823 270.667 184.301 270.91 183.92 271.603C183.803 271.816 183.62 272.104 183.513 272.243C182.841 273.117 182.709 273.309 182.556 273.632C182.402 273.958 182.249 274.174 181.594 274.999C181.481 275.141 181.31 275.413 181.215 275.603C181.119 275.793 180.957 276.045 180.854 276.164C180.751 276.283 180.597 276.518 180.511 276.688C180.426 276.857 180.292 277.048 180.215 277.113C180.138 277.178 180.001 277.378 179.911 277.557C179.821 277.737 179.673 277.953 179.583 278.038C179.419 278.193 179.009 278.863 178.591 279.659C178.467 279.897 178.281 280.208 178.178 280.35C178.075 280.492 177.923 280.795 177.839 281.022C177.755 281.25 177.596 281.545 177.485 281.678C177.374 281.811 177.247 282.084 177.203 282.284C177.159 282.484 177.024 282.792 176.904 282.968C176.784 283.143 176.611 283.506 176.52 283.774C176.429 284.041 176.293 284.356 176.217 284.473C176.142 284.59 175.982 284.988 175.863 285.357C175.745 285.725 175.597 286.109 175.536 286.209C175.474 286.31 175.339 286.722 175.234 287.125C175.13 287.529 174.966 288.034 174.87 288.248C174.773 288.461 174.623 288.985 174.536 289.411C174.449 289.838 174.301 290.347 174.207 290.544C174.113 290.741 173.943 291.467 173.829 292.159C173.715 292.85 173.566 293.642 173.498 293.917C173.006 295.904 172.821 303.086 173.208 305.193C173.307 305.735 173.425 305.845 174.889 306.761C175.117 306.904 175.584 307.211 175.928 307.443C176.272 307.676 176.687 307.929 176.852 308.004C177.016 308.08 177.284 308.245 177.448 308.37C177.611 308.496 177.868 308.624 178.018 308.657C178.168 308.689 178.429 308.827 178.598 308.963C178.768 309.1 179.086 309.279 179.305 309.363C179.525 309.446 179.838 309.602 180.002 309.71C180.166 309.817 180.472 309.966 180.682 310.041C180.892 310.116 181.291 310.292 181.569 310.433C181.846 310.574 182.126 310.689 182.19 310.689C182.254 310.689 182.564 310.819 182.879 310.979C183.194 311.138 183.662 311.318 183.92 311.379C184.178 311.44 184.608 311.6 184.876 311.736C185.592 312.1 186.162 312.087 186.383 311.703C186.607 311.313 187.229 310.407 187.561 309.987C187.713 309.794 187.838 309.568 187.838 309.486C187.838 309.403 187.99 309.105 188.175 308.825C188.42 308.455 188.519 308.209 188.537 307.927L188.562 307.538L187.923 307.215C187.572 307.037 187.073 306.812 186.816 306.715C186.558 306.617 186.234 306.455 186.094 306.352C185.955 306.251 185.618 306.057 185.345 305.923L184.849 305.68L185.063 305.314C185.373 304.785 185.508 304.717 185.921 304.879C186.109 304.953 186.569 305.121 186.944 305.252C187.318 305.383 187.76 305.571 187.924 305.669C188.089 305.768 188.49 305.911 188.815 305.987C189.141 306.064 189.6 306.217 189.836 306.329C190.072 306.44 190.706 306.614 191.244 306.716C191.783 306.818 192.473 306.976 192.777 307.068C194.715 307.649 202.17 307.667 204.132 307.094C204.375 307.024 205.09 306.859 205.723 306.728C206.355 306.598 207.026 306.411 207.213 306.314C207.401 306.217 207.837 306.074 208.183 305.996C208.529 305.918 208.937 305.776 209.09 305.681C209.243 305.585 209.688 305.394 210.079 305.256C210.47 305.118 210.943 304.948 211.13 304.878C211.551 304.719 211.709 304.793 211.943 305.257C212.158 305.685 212.14 305.714 211.465 306.024C211.164 306.163 210.918 306.312 210.918 306.357C210.918 306.402 210.678 306.528 210.386 306.637C210.093 306.746 209.638 306.945 209.375 307.079C209.111 307.213 208.858 307.322 208.813 307.322C208.377 307.322 208.365 308.206 208.793 308.752C208.931 308.928 209.084 309.223 209.133 309.407C209.182 309.591 209.326 309.867 209.454 310.021C209.666 310.277 210.264 311.169 210.609 311.746C210.812 312.084 211.405 312.079 212.086 311.734C212.357 311.597 212.79 311.437 213.047 311.377C213.305 311.318 213.726 311.163 213.984 311.034C214.242 310.904 214.606 310.75 214.793 310.69C214.98 310.631 215.345 310.476 215.602 310.347C215.86 310.217 216.269 310.044 216.511 309.963C216.753 309.882 216.997 309.761 217.051 309.694C217.106 309.628 217.362 309.493 217.619 309.395C217.877 309.297 218.212 309.122 218.363 309.005C218.514 308.889 218.798 308.736 218.995 308.665C219.191 308.595 219.476 308.444 219.628 308.329C219.779 308.214 220.076 308.037 220.286 307.937C220.497 307.836 220.79 307.666 220.937 307.56C221.084 307.453 221.314 307.297 221.448 307.213C221.734 307.035 222.441 306.559 223.149 306.069C223.798 305.619 223.824 305.531 223.955 303.304C224.107 300.714 223.851 295.219 223.527 294.117C223.436 293.808 223.283 293.001 223.187 292.324C223.079 291.562 222.933 290.902 222.805 290.592C222.691 290.317 222.539 289.752 222.467 289.336C222.395 288.92 222.244 288.379 222.13 288.133C222.016 287.887 221.842 287.384 221.743 287.013C221.643 286.643 221.508 286.254 221.442 286.15C221.377 286.046 221.243 285.684 221.145 285.346C221.047 285.008 220.896 284.639 220.81 284.526C220.723 284.413 220.585 284.107 220.502 283.846C220.42 283.585 220.255 283.224 220.136 283.045C220.017 282.866 219.868 282.519 219.806 282.274C219.743 282.029 219.601 281.729 219.491 281.607C219.38 281.485 219.225 281.216 219.146 281.009C219.067 280.801 218.911 280.51 218.799 280.361C218.687 280.213 218.515 279.916 218.417 279.703C218.22 279.271 217.98 278.902 217.521 278.322C217.101 277.792 216.677 277.195 216.403 276.75C216.278 276.546 216.122 276.321 216.057 276.25C215.895 276.073 215.48 275.503 215.209 275.085C215.086 274.895 214.88 274.623 214.751 274.481C214.622 274.338 214.463 274.121 214.399 273.998C214.249 273.712 213.843 273.131 213.516 272.735C213.375 272.565 213.183 272.301 213.09 272.149C212.345 270.938 212.306 270.899 211.858 270.899C211.502 270.899 211.416 270.933 211.268 271.136C210.923 271.61 210.436 272.225 209.791 272.999C209.429 273.434 209.046 273.896 208.94 274.026C208.527 274.53 208.13 274.458 207.593 273.783C207.337 273.461 207.008 273.079 206.862 272.933C206.518 272.591 204.071 269.757 203.692 269.263C203.487 268.995 202.929 269.138 202.629 269.536C202.175 270.137 201.794 270.62 201.553 270.899C200.973 271.571 200.634 271.993 200.442 272.28C200.255 272.561 199.99 272.897 199.455 273.531C199.335 273.674 199.16 273.897 199.067 274.028C198.786 274.421 198.155 274.376 197.863 273.941C197.744 273.763 197.43 273.385 197.167 273.1C196.903 272.815 196.629 272.492 196.557 272.381C196.486 272.271 196.133 271.841 195.773 271.425C195.414 271.01 194.985 270.501 194.821 270.294C194.389 269.748 193.62 269 193.492 269C193.431 269 193.178 269.205 192.93 269.456ZM191.29 291.786C191.758 292.283 193.23 293.776 194.186 294.721C194.623 295.152 194.996 295.608 195.094 295.827C195.283 296.251 195.294 296.226 194.628 296.931L194.212 297.372L193.814 297.299C193.567 297.253 193.368 297.157 193.288 297.044C193.218 296.945 192.932 296.643 192.652 296.375C192.372 296.106 191.931 295.654 191.672 295.37C190.936 294.563 190.276 293.948 190.145 293.946C189.862 293.941 189.25 294.447 188.077 295.653C187.389 296.361 186.684 297.056 186.509 297.197L186.192 297.455L185.801 297.237C185.586 297.117 185.375 296.958 185.332 296.884C185.288 296.81 185.124 296.628 184.965 296.48L184.677 296.211L184.956 295.792C185.327 295.236 189.308 291.224 189.797 290.914L190.18 290.672L190.552 291.035C190.757 291.235 191.089 291.573 191.29 291.786ZM207.196 290.889C207.421 291.004 208.024 291.563 209.024 292.584C211.306 294.915 211.946 295.596 212.103 295.863L212.293 296.185L211.925 296.624C211.018 297.706 210.935 297.679 208.917 295.673C206.743 293.511 207.186 293.486 204.811 295.903C203.693 297.041 203.466 297.233 203.152 297.304L202.788 297.387L202.296 296.857C201.764 296.283 201.747 296.237 201.923 295.811C202.04 295.527 206.685 290.751 206.844 290.751C206.888 290.751 207.046 290.813 207.196 290.889Z" fill="white"/>
<path d="M212.136 345.173C211.638 343.789 210.843 342.532 209.807 341.489C208.771 340.446 207.519 339.644 206.139 339.137C204.759 338.631 203.284 338.433 201.819 338.558C200.355 338.683 198.935 339.128 197.661 339.86L170.674 316.436L168.233 334.844L194.234 354.267C195.607 356.326 197.688 357.81 200.082 358.437C202.476 359.065 205.017 358.792 207.224 357.671C209.431 356.55 211.15 354.659 212.055 352.355C212.96 350.052 212.989 347.496 212.136 345.173Z" fill="#FFB8B8"/>
<path d="M189.106 352.476C188.12 352.474 187.162 352.145 186.382 351.541L141.994 329.828C138.696 329.259 135.686 327.594 133.45 325.103C131.214 322.612 129.883 319.441 129.672 316.101C128.559 299.401 147.329 272.689 151.591 261.324C157.676 245.097 172.526 248.476 172.677 248.514L173.045 248.603L155.551 315.264L195.32 335.338C196.008 335.927 196.501 336.711 196.733 337.587C196.966 338.462 196.927 339.387 196.622 340.24L193.365 349.469C193.132 350.141 192.741 350.747 192.226 351.237C191.71 351.727 191.085 352.086 190.402 352.285C189.982 352.411 189.545 352.475 189.106 352.476Z" fill="#CCCCCC"/>
<path d="M242.059 362.5H153.059C151.203 362.498 149.424 361.76 148.112 360.447C146.799 359.135 146.061 357.356 146.059 355.5V306.5C146.061 304.644 146.799 302.865 148.112 301.553C149.424 300.24 151.203 299.502 153.059 299.5H242.059C243.915 299.502 245.694 300.24 247.006 301.553C248.319 302.865 249.057 304.644 249.059 306.5V355.5C249.057 357.356 248.319 359.135 247.006 360.447C245.694 361.76 243.915 362.498 242.059 362.5Z" fill="#5865F2"/>
<path d="M197.559 337C200.873 337 203.559 334.314 203.559 331C203.559 327.686 200.873 325 197.559 325C194.245 325 191.559 327.686 191.559 331C191.559 334.314 194.245 337 197.559 337Z" fill="white"/>
<path d="M174.591 210.666C173.135 206.973 175.523 202.573 179.066 200.785C182.609 198.996 186.885 199.336 190.675 200.515C193.859 201.506 196.844 203.041 199.951 204.254C203.015 205.611 206.361 206.207 209.704 205.99C213.019 205.616 216.317 203.758 217.673 200.71C219.079 197.552 218.123 193.697 215.958 191.002C213.655 188.396 210.674 186.48 207.347 185.467C200.039 182.892 191.598 182.817 184.814 186.559C178.03 190.302 173.42 198.27 174.822 205.889" fill="#2F3136"/>
<path d="M32.6625 351.818C33.8979 338.513 37.3102 325.501 42.763 313.301C44.2828 309.906 45.9555 306.586 47.7811 303.34C47.8727 303.171 47.8948 302.972 47.8427 302.786C47.7906 302.601 47.6684 302.443 47.5019 302.345C47.3354 302.248 47.1376 302.219 46.9502 302.265C46.7628 302.31 46.6006 302.427 46.4976 302.59C39.8583 314.411 35.2071 327.243 32.7298 340.573C32.0407 344.295 31.5228 348.044 31.176 351.818C31.0879 352.771 32.5749 352.765 32.6625 351.818Z" fill="#E6E6E6"/>
<path d="M51.3814 305.724C56.5809 305.724 60.7958 301.509 60.7958 296.31C60.7958 291.111 56.5809 286.896 51.3814 286.896C46.182 286.896 41.967 291.111 41.967 296.31C41.967 301.509 46.182 305.724 51.3814 305.724Z" fill="#5865F2"/>
<path d="M33.6255 352.069C34.427 343.437 36.6406 334.995 40.1781 327.081C41.1641 324.878 42.2492 322.724 43.4336 320.619C43.493 320.508 43.5073 320.38 43.4735 320.259C43.4397 320.139 43.3604 320.036 43.2524 319.973C43.1444 319.91 43.0161 319.891 42.8946 319.921C42.773 319.95 42.6678 320.026 42.601 320.132C38.2938 327.801 35.2763 336.125 33.6691 344.773C33.2221 347.188 32.8861 349.62 32.6611 352.069C32.604 352.686 33.5687 352.682 33.6255 352.069H33.6255Z" fill="#E6E6E6"/>
<path d="M45.7694 322.165C49.1425 322.165 51.8769 319.431 51.8769 316.058C51.8769 312.685 49.1425 309.95 45.7694 309.95C42.3963 309.95 39.6618 312.685 39.6618 316.058C39.6618 319.431 42.3963 322.165 45.7694 322.165Z" fill="#5865F2"/>
<path d="M32.4083 351.492C27.7312 344.193 24.2845 336.175 22.2059 327.759C21.6286 325.416 21.1594 323.05 20.7983 320.662C20.7774 320.538 20.7095 320.428 20.6087 320.354C20.508 320.279 20.3823 320.247 20.2583 320.264C20.1343 320.281 20.0216 320.345 19.944 320.443C19.8664 320.541 19.8299 320.666 19.8424 320.79C21.163 329.486 23.9039 337.906 27.9554 345.713C29.0882 347.892 30.3191 350.016 31.648 352.085C31.9828 352.607 32.7411 352.011 32.4083 351.492Z" fill="#E6E6E6"/>
<path d="M19.8347 321.736C23.2078 321.736 25.9422 319.002 25.9422 315.629C25.9422 312.256 23.2078 309.521 19.8347 309.521C16.4616 309.521 13.7271 312.256 13.7271 315.629C13.7271 319.002 16.4616 321.736 19.8347 321.736Z" fill="#5865F2"/>
<path d="M13.6586 356.896V344.896C13.6599 343.703 14.1345 342.559 14.9781 341.715C15.8217 340.872 16.9655 340.397 18.1586 340.396H46.1586C47.3516 340.397 48.4954 340.872 49.3391 341.715C50.1827 342.559 50.6572 343.703 50.6586 344.896V356.896C50.6572 358.089 50.1827 359.233 49.3391 360.076C48.4954 360.92 47.3516 361.394 46.1586 361.396H18.1586C16.9655 361.394 15.8217 360.92 14.9781 360.076C14.1345 359.233 13.6599 358.089 13.6586 356.896Z" fill="#F2F2F2"/>
</g>
<defs>
<clipPath id="clip0_1_91">
<rect width="655" height="413.68" fill="white"/>
</clipPath>
</defs>
</svg>
